<svg xmlns="http://www.w3.org/2000/svg" width="500" height="500" viewBox="0 0 500 500">
<g>
<path d="M 272.34,389.82 L 270.82,390.39 L 270.44,390.68 L 269.94,391.25 L 270.08,391.53 L 270.60,392.09 L 271.25,392.36 L 272.24,392.60 L 273.02,392.61 L 274.74,392.56 L 275.79,392.45 L 277.38,392.24 L 276.46,392.46 L 274.47,392.99 L 273.53,393.25 L 272.03,393.74 L 270.50,394.39 L 270.33,394.49 L 269.74,394.67 L 269.40,394.76 L 268.50,394.93 L 267.53,395.09 L 264.87,395.36 L 263.46,395.48 L 260.19,395.66 L 258.51,395.74 L 254.99,395.84 L 253.24,395.87 L 249.86,395.86 L 248.22,395.85 L 246.52,395.78 L 246.60,395.72 L 246.61,395.56 L 246.42,395.45 L 245.93,395.18 L 245.50,395.00 L 244.67,394.60 L 244.35,394.38 L 244.31,394.29 L 244.31,394.14 L 244.42,394.08 L 244.73,393.98 L 245.00,393.95 L 245.27,393.81 L 245.11,393.67 L 244.88,393.58 L 244.34,393.39 L 243.93,393.29 L 243.05,393.08 L 242.50,392.97 L 240.20,392.51 L 238.12,392.07 L 236.91,391.82 L 233.04,390.99 L 233.50,391.08 L 235.05,391.34 L 238.27,391.79 L 241.50,392.22 L 247.69,392.70 L 249.15,392.79 L 251.77,392.86 L 253.01,392.88 L 255.04,392.80 L 255.96,392.75 L 257.21,392.51 L 257.47,392.44 L 257.80,392.26 L 258.00,391.95 L 258.00,391.76 L 258.10,391.63 L 258.07,391.72 L 258.14,392.05 L 258.38,392.83 L 258.61,393.42 L 259.18,394.21 L 259.72,394.46 L 260.94,394.88 L 261.67,394.94 L 263.20,394.95 L 263.95,394.80 L 265.41,394.38 L 266.00,394.00 L 266.59,393.53 L 266.70,393.31 L 266.60,393.23 L 266.30,393.10 L 265.98,393.07 L 265.24,393.02 L 264.69,393.02 L 262.86,392.72 L 262.53,392.52 L 262.47,392.40 L 262.41,392.14 L 262.50,392.00 L 262.55,391.60 L 262.38,391.38 L 262.25,391.31 L 263.14,391.27 L 263.97,391.20 L 266.16,390.88 L 267.32,390.70 L 270.03,390.19 L 271.44,389.92 L 274.50,389.25 L 275.36,389.06 M 240.65,395.15 L 240.37,394.97 L 240.34,394.94 L 240.71,395.17 M 319.64,374.23 L 313.21,377.91 L 312.13,378.45 L 310.69,379.47 L 310.10,379.96 L 309.65,380.78 L 309.61,380.96 L 309.70,381.28 L 309.78,381.43 L 310.14,381.67 L 310.35,381.78 L 310.96,381.91 L 312.18,382.00 L 312.60,382.00 L 313.17,382.06 L 313.40,382.10 L 313.61,382.28 L 313.68,382.39 L 313.56,382.72 L 313.05,383.44 L 312.83,383.70 L 311.98,384.28 L 311.48,384.58 L 310.16,385.21 L 309.46,385.53 L 307.80,386.17 L 306.94,386.49 L 305.07,387.10 L 303.17,387.70 L 299.25,388.66 L 298.31,388.86 L 296.54,389.16 L 294.20,389.40 L 293.45,389.43 L 291.57,389.62 L 290.58,389.74 L 288.34,390.07 L 286.11,390.42 L 286.61,390.28 L 288.89,389.61 L 289.87,389.26 L 291.70,388.57 L 292.36,388.24 L 293.50,387.58 L 293.73,387.28 L 294.92,386.36 L 296.32,385.54 L 297.25,385.05 L 299.25,384.05 L 300.39,383.52 L 302.76,382.46 L 304.00,381.95 L 316.01,376.16 L 322.98,372.05 M 287.33,386.04 L 284.45,386.85 L 278.67,388.36 L 276.33,388.84 L 277.62,388.55 L 284.16,386.86 L 285.76,386.42 L 288.81,385.52 L 289.63,385.26 M 214.00,387.33 L 214.00,387.28 L 214.41,387.51 L 215.40,387.40 L 214.41,387.53 M 299.32,385.20 L 298.88,385.30 L 298.06,385.74 L 297.28,386.67 L 297.15,387.04 L 297.53,387.40 L 298.94,387.30 L 299.51,387.16 L 300.40,386.64 L 300.77,386.37 L 301.00,385.81 L 301.00,385.48 L 300.49,385.18 L 300.17,385.09 M 184.42,376.16 L 185.69,376.75 L 187.88,377.52 L 190.47,378.00 L 191.17,378.00 L 192.26,378.24 L 193.00,378.82 L 193.00,378.95 L 193.73,379.45 L 194.19,379.74 L 195.67,380.46 L 196.48,380.84 L 198.46,381.69 L 199.49,382.13 L 201.72,383.01 L 202.85,383.45 L 205.10,384.27 L 206.20,384.66 L 208.21,385.32 L 209.16,385.63 L 210.70,386.04 L 211.97,386.23 L 211.75,386.22 L 210.27,385.97 L 208.81,385.58 L 207.91,385.30 L 206.02,384.68 L 204.99,384.30 L 202.89,383.53 L 201.83,383.10 L 198.75,381.90 L 196.83,381.19 L 196.00,380.91 L 194.47,380.40 L 193.91,380.24 L 192.95,380.00 L 192.76,380.00 L 191.42,379.64 L 190.03,379.07 L 189.13,378.65 L 187.23,377.72 L 186.14,377.15 L 183.88,375.96 L 183.00,375.47 M 172.92,369.51 L 172.88,369.48 L 172.63,369.32 M 167.29,365.55 L 170.67,367.97 L 172.33,369.12 L 171.79,368.77 L 169.68,367.37 L 168.78,366.72 L 166.50,364.95 M 164.93,363.73 L 160.36,360.18 L 159.43,359.35 M 155.79,356.07 L 157.03,357.22 L 155.14,355.53 L 153.00,353.34 M 369.20,318.69 L 367.68,321.31 L 364.57,326.51 L 362.89,329.03 L 359.44,334.01 L 357.60,336.42 L 353.85,341.18 L 351.86,343.46 L 347.81,347.97 L 345.69,350.13 L 341.37,354.38 L 339.12,356.40 L 338.52,356.93 L 339.81,355.77 L 341.78,353.97 L 345.57,350.20 L 347.44,348.29 L 351.02,344.32 L 352.79,342.32 L 356.16,338.16 L 357.81,336.06 L 360.94,331.74 L 362.47,329.55 L 365.36,325.07 L 366.76,322.82 L 369.38,318.20 L 370.61,315.95 M 363.36,332.82 L 362.05,334.80 L 358.87,338.96 L 357.20,341.06 L 353.41,345.37 L 352.79,346.06 L 356.66,341.66 L 361.23,335.79 L 363.32,332.73 L 365.19,329.88 M 137.51,335.33 L 136.93,334.59 L 135.25,332.42 L 136.40,333.90 M 370.82,320.44 L 370.32,321.31 L 371.18,319.75 M 373.31,310.59 L 371.97,313.30 L 370.71,315.74 L 372.99,311.13 L 373.95,309.10 M 375.71,310.43 L 374.59,312.95 L 374.42,313.29 L 376.01,309.71 M 375.71,305.02 L 374.71,307.33 L 375.90,304.51 M 380.64,297.66 L 378.81,302.81 L 377.86,305.37 L 377.72,305.70 L 378.60,303.34 L 380.94,296.68 M 383.60,287.12 L 382.95,289.80 L 381.44,295.05 L 381.30,295.52 L 382.08,292.76 L 383.72,286.57 M 385.29,278.99 L 384.80,281.73 L 384.36,283.69 L 384.74,281.84 L 385.66,276.74 M 271.00,276.20 L 270.71,277.98 L 270.62,278.37 L 270.39,278.97 L 270.00,279.50 L 269.84,279.60 L 269.58,279.38 L 269.46,279.20 L 269.27,278.48 L 269.18,278.05 L 269.16,277.88 L 269.23,278.22 L 269.40,278.92 L 269.51,279.12 L 269.72,279.39 L 269.84,279.36 L 270.08,279.21 L 270.20,278.97 L 270.45,278.39 L 270.57,277.94 L 270.81,276.93 L 270.93,276.27 L 271.00,275.77 M 268.94,272.81 L 268.95,273.07 L 268.90,272.48 M 268.55,261.25 L 269.05,262.29 L 269.84,263.66 L 270.21,264.24 L 270.84,264.76 L 271.16,264.92 L 271.82,264.66 L 273.00,263.50 L 273.33,263.10 L 273.88,262.54 L 274.13,262.30 L 274.53,262.03 L 274.71,261.93 L 274.96,261.94 L 275.06,261.97 L 275.15,262.23 L 275.18,262.39 L 275.11,262.89 L 275.06,263.16 L 274.83,263.88 L 273.52,266.74 L 272.83,268.05 L 271.74,271.18 L 271.51,271.94 L 271.29,272.95 L 271.35,271.91 L 271.32,270.74 L 271.25,270.26 L 271.07,269.36 L 270.92,269.02 L 270.58,268.40 L 270.35,268.18 L 269.40,266.48 L 269.00,264.91 L 269.00,264.15 L 268.57,261.63 L 268.12,260.45 M 267.47,264.50 L 268.03,266.52 L 268.37,268.17 L 268.50,269.07 L 268.51,269.13 L 268.40,268.42 L 268.04,266.69 L 267.44,264.47 L 267.19,263.73 L 267.16,263.64 M 266.75,258.57 L 267.09,258.86 L 267.28,259.06 L 267.56,259.48 L 267.53,259.44 L 266.89,258.69 L 266.74,258.57 M 261.31,253.34 L 262.71,254.29 L 263.25,254.83 L 263.78,255.66 L 263.95,256.02 L 263.82,256.42 L 263.68,256.56 L 262.99,256.44 L 262.58,256.31 L 261.43,255.57 L 260.90,255.18 L 260.30,254.35 L 260.28,253.39 L 260.49,253.18 M 188.10,224.29 L 188.26,224.56 L 188.59,224.94 L 188.29,224.93 L 188.10,224.83 L 188.00,224.08 L 188.00,223.58 L 188.01,223.55 M 194.14,217.31 L 194.12,217.51 L 193.88,218.16 L 193.72,218.52 L 193.22,219.42 L 192.24,220.96 L 191.58,221.92 L 190.46,223.34 L 190.36,223.45 L 190.38,222.41 L 189.92,222.00 L 189.47,222.00 L 188.43,222.44 L 188.17,222.84 L 188.22,222.60 L 188.36,222.13 L 188.79,221.29 L 189.03,220.91 L 189.59,220.36 L 190.50,220.00 L 190.85,220.00 L 191.58,219.56 L 192.36,218.50 L 192.52,218.09 L 193.07,217.44 L 193.96,217.00 L 194.10,217.00 M 193.71,186.28 L 194.00,186.94 L 194.00,187.20 L 193.71,187.79 L 193.00,188.50 L 192.72,188.67 L 192.29,188.48 L 192.11,188.31 L 192.00,187.56 L 192.00,187.13 L 192.29,186.46 L 193.00,186.00 L 193.27,186.00 M 239.48,394.52 L 239.05,394.37 L 237.86,394.09 L 233.39,393.53 L 237.86,394.08 L 239.03,394.35 L 239.46,394.50 L 240.19,394.79 L 240.22,394.82 M 213.34,386.49 L 212.41,386.24 L 212.69,386.22 L 213.47,386.43 L 214.00,387.03 L 214.00,387.09 Z" fill="rgba(111,86,43,1)"/>
<path d="M 240.20,392.51 L 242.50,392.97 L 243.05,393.08 L 243.93,393.29 L 244.34,393.39 L 244.88,393.58 L 245.11,393.67 L 245.27,393.81 L 245.00,393.95 L 244.73,393.98 L 244.42,394.08 L 244.31,394.14 L 244.31,394.29 L 244.35,394.38 L 244.67,394.60 L 245.50,395.00 L 245.93,395.18 L 246.42,395.45 L 246.61,395.56 L 246.60,395.72 L 246.52,395.78 L 245.96,395.86 L 244.45,395.93 L 243.61,395.95 L 241.98,395.67 L 241.24,395.49 L 240.34,394.94 L 240.19,394.79 L 239.46,394.50 L 239.03,394.35 L 237.86,394.08 L 235.63,393.81 L 236.88,393.72 L 237.43,393.58 L 238.35,393.25 L 238.50,393.00 L 238.85,392.29 L 238.86,392.23 M 262.21,391.29 L 262.38,391.38 L 262.55,391.60 L 262.50,392.00 L 262.41,392.14 L 262.47,392.40 L 262.53,392.52 L 262.86,392.72 L 264.69,393.02 L 265.24,393.02 L 265.98,393.07 L 266.30,393.10 L 266.60,393.23 L 266.70,393.31 L 266.59,393.53 L 266.00,394.00 L 265.41,394.38 L 263.95,394.80 L 263.20,394.95 L 261.67,394.94 L 260.94,394.88 L 259.72,394.46 L 259.18,394.21 L 258.61,393.42 L 258.38,392.83 L 258.14,392.05 L 258.07,391.72 L 258.20,391.33 L 258.33,391.18 L 258.95,391.05 L 260.56,391.00 L 261.28,391.00 M 213.74,389.95 L 223.21,392.24 L 221.90,392.02 L 215.56,390.54 L 212.34,389.72 L 209.18,388.74 M 207.85,388.34 L 205.70,387.67 L 202.36,386.59 L 200.32,385.82 M 165.08,368.47 L 167.27,369.89 L 168.50,370.65 L 171.05,372.22 L 172.50,373.10 L 175.39,374.72 L 173.01,373.45 L 167.27,369.99 L 164.98,368.41 M 157.49,362.98 L 159.30,364.37 L 161.61,366.08 L 159.50,364.63 L 158.88,364.16 L 157.20,362.73 L 156.30,361.96 L 155.21,360.98 M 139.09,344.67 L 139.18,344.88 L 139.45,345.37 L 139.72,345.72 L 140.33,346.49 L 140.77,346.98 L 141.62,347.91 L 141.51,347.80 L 140.74,346.99 L 139.68,345.79 L 139.46,345.53 L 139.18,345.15 L 139.00,344.80 L 139.00,344.60 L 139.12,344.56 M 268.71,291.44 L 269.00,292.50 L 269.00,292.91 L 268.71,293.56 L 268.00,294.00 L 267.72,294.00 L 267.29,293.56 L 267.11,293.29 L 267.00,292.50 L 267.00,292.09 L 267.29,291.44 L 268.00,291.00 L 268.27,291.00 M 278.91,275.58 L 278.96,276.29 L 278.93,276.66 L 278.61,277.49 L 278.42,277.90 L 277.89,278.55 L 277.00,279.00 L 276.63,279.00 L 276.45,278.50 L 276.46,278.33 L 276.61,277.85 L 276.71,277.59 L 277.05,276.91 L 277.35,276.34 L 277.99,275.60 L 278.70,275.37 M 397.71,260.59 L 398.00,262.00 L 398.00,262.55 L 397.71,263.41 L 397.00,264.00 L 396.72,264.00 L 396.29,263.41 L 396.11,263.05 L 396.00,262.00 L 396.00,261.45 L 396.29,260.59 L 397.00,260.00 L 397.27,260.00 M 117.41,242.66 L 117.53,243.08 L 117.72,244.50 L 117.81,245.29 L 117.93,247.34 L 118.00,251.00 L 118.00,252.13 L 117.99,254.00 L 117.99,254.87 L 117.97,256.28 L 117.95,256.93 L 117.91,257.92 L 117.88,258.37 L 117.80,259.01 L 117.75,259.29 L 117.63,259.62 L 117.57,259.75 L 117.40,259.82 L 117.22,259.84 L 116.67,259.33 L 116.53,259.20 L 116.32,258.28 L 116.23,257.73 L 116.10,256.17 L 116.05,255.33 L 116.00,253.37 L 115.99,252.37 L 116.01,250.26 L 116.03,249.21 L 116.12,247.20 L 116.17,246.23 L 116.33,244.56 L 116.41,243.79 L 116.62,242.70 L 117.00,242.00 L 117.15,242.00 M 397.71,255.67 L 398.00,256.94 L 398.00,257.51 L 397.71,258.40 L 397.00,259.00 L 396.72,259.00 L 396.29,258.58 L 396.11,258.32 L 396.00,257.56 L 396.00,257.16 L 396.29,256.36 L 397.00,255.50 L 397.27,255.33 M 192.27,210.00 L 192.61,210.32 L 192.76,210.52 L 192.90,211.11 L 192.79,212.14 L 192.62,212.65 L 192.29,212.90 L 192.11,212.90 L 191.58,212.13 L 191.37,211.79 L 191.21,211.06 L 191.40,210.27 L 191.62,210.04 L 192.06,209.98 M 171.65,139.31 L 171.55,139.60 L 171.47,139.77 L 171.14,140.23 L 169.50,142.00 L 169.06,142.41 L 168.37,142.98 L 168.05,143.22 L 167.59,143.45 L 167.39,143.52 L 167.14,143.43 L 167.05,143.34 L 167.00,142.91 L 167.00,142.56 L 167.61,141.64 L 167.98,141.17 L 169.00,140.27 L 169.53,139.85 L 170.55,139.30 L 171.59,139.26 M 301.00,127.54 L 301.91,127.86 L 303.49,128.45 L 304.24,128.74 L 305.52,129.27 L 306.12,129.53 L 307.11,130.02 L 307.58,130.26 L 308.30,130.71 L 308.95,131.16 L 309.52,131.98 L 309.38,133.20 L 309.22,133.46 L 308.88,133.75 L 308.66,133.85 L 307.83,133.73 L 307.56,133.67 L 306.86,133.45 L 306.47,133.32 L 305.46,132.96 L 304.91,132.76 L 303.54,132.25 L 302.80,131.97 L 301.00,131.28 L 300.07,130.93 L 300.32,130.85 L 300.37,130.75 L 300.41,130.53 L 300.33,130.36 L 300.10,130.01 L 299.88,129.78 L 299.37,129.29 L 299.00,129.00 L 297.53,127.59 L 297.32,127.26 L 297.31,127.15 L 297.36,126.97 L 297.50,126.96 L 297.90,126.81 L 297.79,126.63 L 297.57,126.51 L 297.32,126.40 M 276.09,123.69 L 281.94,125.03 L 284.55,125.72 L 287.10,126.40 L 288.26,126.74 L 290.49,127.41 L 291.46,127.73 L 293.29,128.36 L 294.03,128.66 L 295.39,129.23 L 295.48,129.28 L 292.64,128.30 L 289.86,127.39 L 284.32,125.77 L 281.54,125.00 L 275.96,123.67 L 272.59,123.00 M 274.55,121.31 L 277.50,121.69 L 278.12,121.80 L 277.03,121.64 L 275.35,121.42 L 273.07,121.14 M 266.00,120.52 L 268.73,120.66 L 271.28,120.94 L 270.40,120.86 L 267.31,120.59 L 266.00,120.52 L 256.51,120.06 L 256.50,120.06 M 281.38,116.17 L 282.00,116.37 L 284.56,117.13 L 285.65,117.38 L 287.71,117.78 L 288.50,117.84 L 288.94,117.85 L 288.50,117.84 L 287.71,117.78 L 285.66,117.38 L 284.56,117.13 L 282.00,116.38 L 281.23,116.13 M 281.92,114.03 L 282.14,114.09 L 281.17,113.88 M 250.23,110.11 L 252.04,110.17 L 256.17,110.44 L 258.28,110.59 L 262.77,111.03 L 265.03,111.26 L 269.57,111.85 L 271.82,112.15 L 276.11,112.86 L 280.68,113.78 L 275.01,112.69 L 272.05,112.26 L 269.13,111.86 L 267.77,111.72 L 265.14,111.48 L 264.00,111.43 L 255.50,111.07 L 266.50,113.00 L 271.16,113.92 L 266.41,113.20 L 263.43,112.79 L 257.56,112.24 L 256.13,112.13 L 253.44,111.99 L 249.75,111.94 L 248.40,111.96 L 246.10,111.92 L 245.03,111.88 L 243.35,111.75 L 242.59,111.67 L 241.61,111.45 L 241.00,111.03 L 241.00,110.89 L 241.30,110.65 L 241.50,110.54 L 242.18,110.37 L 242.56,110.29 L 243.57,110.18 L 244.11,110.13 L 245.41,110.07 L 246.78,110.03 M 139.63,339.79 L 139.50,340.00 L 139.60,340.91 L 139.50,340.00 Z" fill="rgba(145,112,57,1)"/>
<path d="M 282.94,391.20 L 282.89,391.21 L 282.99,391.19 M 293.50,387.58 L 292.36,388.24 L 291.70,388.57 L 289.87,389.26 L 288.89,389.61 L 286.61,390.28 L 285.44,390.61 L 283.00,391.19 L 285.50,390.58 L 286.68,390.24 L 288.98,389.54 L 289.98,389.18 L 291.84,388.46 L 292.53,388.11 L 293.55,387.51 M 278.38,388.42 L 275.76,388.96 L 278.38,388.42 M 304.00,381.95 L 302.76,382.46 L 300.39,383.52 L 299.25,384.05 L 297.25,385.05 L 296.32,385.54 L 294.92,386.36 L 294.32,386.82 L 295.06,386.21 L 296.14,385.52 L 296.82,385.15 L 299.85,383.63 L 301.50,382.99 L 306.83,380.59 M 316.01,376.16 L 315.18,376.56 L 317.27,375.42 M 318.29,371.99 L 316.70,372.90 L 317.32,372.54 L 319.73,371.08 M 327.59,368.90 L 323.81,371.56 L 321.66,372.83 L 323.25,371.80 L 328.37,368.32 M 362.70,329.43 L 360.76,332.27 L 358.34,335.90 L 356.91,338.16 L 356.33,339.12 L 355.27,340.92 L 354.93,341.57 L 354.63,342.17 L 354.53,342.40 L 354.38,342.79 L 354.36,342.90 L 354.34,343.48 L 354.43,343.59 L 354.67,343.70 L 354.89,343.59 L 355.08,343.45 L 349.23,350.12 L 345.81,353.70 L 338.69,360.20 L 335.08,363.33 L 332.36,365.35 L 333.35,364.57 L 339.63,359.32 L 342.47,356.54 L 345.01,354.03 L 346.25,352.77 L 346.61,352.38 L 347.17,351.78 L 347.16,351.75 L 347.10,351.77 L 346.99,351.86 L 346.72,352.08 L 346.50,352.27 L 344.14,354.07 L 343.53,354.43 L 343.31,354.51 L 342.93,354.60 L 342.86,354.53 L 342.24,354.70 L 341.45,355.16 L 340.91,355.54 L 339.75,356.38 L 339.07,356.91 L 337.67,358.04 L 336.93,358.68 L 330.34,363.94 L 325.68,367.29 L 323.24,368.88 L 320.01,370.91 L 324.91,367.63 L 327.39,365.91 L 332.18,362.24 L 334.56,360.37 L 339.12,356.40 L 341.37,354.38 L 345.69,350.13 L 347.81,347.97 L 351.86,343.46 L 353.85,341.18 L 357.60,336.42 L 359.44,334.01 L 362.89,329.03 L 363.70,327.80 M 372.74,316.88 L 369.21,323.35 L 367.38,326.55 L 363.32,332.73 L 361.23,335.79 L 360.84,336.29 L 361.95,334.69 L 363.20,332.78 L 365.73,328.83 L 367.01,326.74 L 369.55,322.49 L 370.75,320.39 L 373.02,316.28 M 114.62,305.36 L 116.48,310.15 L 117.45,312.41 L 119.40,316.81 L 120.38,318.80 L 122.34,322.61 L 123.30,324.23 L 125.19,327.24 L 125.67,327.85 L 125.16,327.21 L 123.23,324.14 L 122.26,322.51 L 120.29,318.67 L 119.30,316.67 L 117.35,312.24 L 116.39,309.97 L 114.53,305.15 L 114.06,303.87 M 117.99,308.20 L 118.68,309.78 L 118.28,308.94 L 117.40,306.83 M 113.65,302.78 L 113.63,302.71 L 113.51,302.35 M 115.68,302.72 L 115.57,302.44 L 115.50,302.23 M 384.74,281.84 L 383.99,285.54 L 382.08,292.76 L 381.06,296.35 L 379.85,299.78 L 380.44,297.99 L 381.17,295.52 L 382.59,290.51 L 383.23,288.02 L 384.45,283.08 L 384.84,281.26 M 117.71,295.44 L 118.00,296.50 L 118.00,296.91 L 117.71,297.56 L 117.00,298.00 L 116.72,298.00 L 116.29,297.56 L 116.11,297.29 L 116.00,296.50 L 116.00,296.09 L 116.29,295.44 L 117.00,295.00 L 117.27,295.00 M 114.93,288.06 L 115.18,288.14 L 115.71,288.74 L 116.37,290.25 L 116.58,291.04 L 116.83,292.18 L 116.92,292.68 L 116.92,293.32 L 116.89,293.59 L 116.62,293.86 L 115.89,294.00 L 115.59,294.00 L 115.28,293.56 L 115.18,293.29 L 115.36,292.50 L 115.52,292.09 L 115.48,291.44 L 114.97,291.00 L 114.70,291.00 L 114.28,290.56 L 114.00,289.50 L 114.00,288.92 L 114.28,288.29 L 114.44,288.05 M 111.53,289.69 L 111.95,291.27 L 112.51,293.25 L 112.24,292.40 L 111.30,288.83 L 110.47,285.41 M 109.25,280.08 L 109.84,282.83 L 109.52,281.51 L 108.91,278.41 M 113.71,277.59 L 114.00,279.00 L 114.00,279.55 L 113.71,280.41 L 113.00,281.00 L 112.72,281.00 L 112.29,280.41 L 112.11,280.05 L 112.00,279.00 L 112.00,278.45 L 112.29,277.59 L 113.00,277.00 L 113.27,277.00 M 268.52,269.16 L 268.70,269.79 L 269.06,270.98 L 269.24,271.46 L 269.58,272.32 L 269.72,272.59 L 269.99,273.00 L 270.09,273.00 L 271.00,272.47 L 271.35,271.70 L 271.35,271.91 L 271.23,273.97 L 271.14,274.84 L 270.93,276.27 L 270.81,276.93 L 270.57,277.94 L 270.45,278.39 L 270.20,278.97 L 270.08,279.21 L 269.84,279.36 L 269.72,279.39 L 269.51,279.12 L 269.40,278.92 L 269.23,278.22 L 269.15,277.81 L 269.04,276.66 L 268.99,276.04 L 268.96,274.45 L 268.94,272.81 L 268.51,269.14 M 106.39,261.32 L 106.51,261.53 L 106.71,262.20 L 107.00,265.09 L 107.00,265.83 L 107.16,267.79 L 107.27,268.84 L 107.62,271.33 L 107.82,272.62 L 108.33,275.49 L 108.54,276.59 L 107.77,272.92 L 107.21,270.50 L 106.97,269.61 L 106.52,268.05 L 106.35,267.59 L 106.03,266.89 L 105.93,266.86 L 105.76,267.01 L 105.73,267.42 L 105.72,268.44 L 105.78,269.28 L 105.94,271.17 L 106.10,272.45 L 106.26,273.72 L 105.97,271.67 L 105.79,270.41 L 105.52,268.31 L 105.40,267.32 L 105.23,265.71 L 105.15,264.96 L 105.09,263.78 L 105.07,263.24 L 105.10,262.43 L 105.13,262.07 L 105.26,261.58 L 106.00,261.00 L 106.14,261.00 M 111.53,268.40 L 112.00,269.00 L 112.32,269.49 L 112.71,270.45 L 112.87,270.92 L 112.95,271.73 L 112.95,272.11 L 112.71,272.65 L 112.00,273.00 L 111.86,273.00 L 111.61,272.78 L 111.49,272.64 L 111.30,272.19 L 111.12,271.69 L 111.02,270.25 L 111.02,269.71 L 111.07,268.99 L 111.10,268.68 L 111.23,268.38 L 111.30,268.29 M 118.27,268.67 L 118.71,269.21 L 119.00,270.06 L 119.00,270.32 L 118.71,270.72 L 118.00,271.00 L 117.72,271.00 L 117.29,270.54 L 117.11,270.26 L 117.00,269.44 L 117.00,269.01 L 117.29,268.52 L 118.00,268.50 M 270.58,268.40 L 270.63,268.48 L 270.50,268.35 L 270.46,268.28 M 386.62,265.41 L 386.74,265.54 L 386.80,265.96 L 386.68,265.57 L 386.54,265.47 L 386.22,265.36 L 386.13,265.42 L 386.13,265.42 L 386.34,265.29 M 266.17,258.48 L 266.19,258.73 L 266.26,259.33 L 266.36,259.80 L 266.57,260.86 L 266.74,261.59 L 267.10,263.19 L 267.28,263.97 L 266.99,263.16 L 266.39,261.08 L 266.27,260.62 L 266.12,259.86 L 266.07,259.51 L 266.04,258.99 L 266.04,258.76 L 266.14,258.49 L 266.18,258.43 M 266.89,258.69 L 267.53,259.44 L 267.94,259.97 L 268.57,261.63 L 268.92,263.70 L 268.54,261.62 L 267.86,259.97 L 267.43,259.44 L 266.56,258.42 M 262.29,239.73 L 262.45,239.88 L 262.82,240.50 L 263.01,240.84 L 263.38,241.78 L 263.88,243.46 L 264.05,244.13 L 264.33,245.24 L 264.46,245.77 L 264.65,246.60 L 264.82,247.37 L 264.92,248.25 L 264.93,248.61 L 264.70,248.89 L 264.00,249.00 L 263.72,249.00 L 263.34,248.78 L 263.19,248.64 L 263.16,248.25 L 263.20,248.04 L 263.04,247.19 L 262.54,245.71 L 262.32,245.21 L 262.16,244.26 L 262.37,243.30 L 262.54,243.13 L 262.50,242.50 L 261.94,241.43 L 261.63,241.05 L 261.44,240.36 L 261.84,239.60 L 261.96,239.52 M 105.05,242.90 L 105.07,244.50 L 105.10,245.87 L 105.14,246.32 L 105.22,247.06 L 105.29,247.22 L 105.44,247.38 L 105.55,247.26 L 105.78,246.88 L 105.80,246.85 L 105.66,247.27 L 105.55,247.55 L 105.38,247.72 L 105.29,247.74 L 105.17,247.37 L 105.11,247.12 L 105.04,246.20 L 105.01,245.68 L 105.00,244.21 L 105.00,243.44 L 105.09,241.61 L 105.15,240.66 L 105.19,240.30 M 112.71,240.73 L 113.00,242.50 L 113.00,243.15 L 112.95,244.05 L 112.91,244.43 L 112.75,244.81 L 112.65,244.95 L 112.34,244.88 L 112.16,244.80 L 111.67,244.33 L 111.41,244.07 L 111.12,243.22 L 111.02,242.76 L 111.03,241.78 L 111.06,241.30 L 111.33,240.53 L 112.00,240.00 L 112.27,240.00 M 108.77,225.34 L 108.83,225.48 L 108.90,225.93 L 108.93,226.19 L 108.91,226.95 L 108.89,227.37 L 108.78,228.50 L 108.71,229.12 L 108.51,230.70 L 108.40,231.55 L 108.10,233.66 L 107.53,237.48 L 107.38,238.49 L 107.49,237.02 L 107.62,235.18 L 107.65,234.35 L 107.69,232.76 L 107.68,232.12 L 107.62,230.94 L 107.55,230.57 L 107.38,230.00 L 107.24,230.00 L 106.84,230.36 L 106.58,230.94 L 106.45,231.36 L 106.19,232.31 L 106.15,232.52 L 106.18,232.29 L 106.35,231.28 L 106.69,229.45 L 106.87,228.58 L 107.21,227.13 L 107.38,226.47 L 107.70,225.57 L 108.12,225.00 L 108.41,225.00 M 113.30,232.98 L 113.62,233.36 L 113.75,233.60 L 113.87,234.33 L 113.74,235.67 L 113.64,236.11 L 113.48,236.66 L 113.41,236.87 L 113.26,236.99 L 113.18,236.99 L 112.98,236.67 L 112.86,236.46 L 112.53,235.71 L 112.32,235.21 L 112.16,234.26 L 112.38,233.29 L 112.63,233.04 L 113.08,232.96 M 187.71,228.50 L 188.00,229.38 L 188.00,229.79 L 187.71,230.62 L 187.00,231.50 L 186.72,231.67 L 186.29,231.50 L 186.11,231.34 L 186.00,230.62 L 186.00,230.21 L 186.29,229.38 L 187.00,228.50 L 187.28,228.33 M 190.38,222.41 L 190.36,223.50 L 190.20,223.91 L 189.69,224.56 L 188.89,225.00 L 188.65,225.00 L 188.26,224.56 L 188.10,224.29 L 188.00,223.50 L 188.00,223.09 L 188.43,222.44 L 189.47,222.00 L 189.92,222.00 M 376.82,196.68 L 376.80,196.81 L 376.80,196.81 L 376.80,196.81 L 376.82,196.68 M 376.63,195.55 L 376.78,196.11 L 376.82,196.64 L 376.61,195.48 M 366.64,176.18 L 371.43,184.71 L 372.22,186.11 L 372.87,187.36 L 372.20,186.18 L 368.06,178.80 L 366.82,176.53 L 366.40,175.76 M 339.35,145.36 L 339.59,145.47 L 340.24,145.90 L 340.60,146.15 L 341.45,146.82 L 341.90,147.18 L 342.92,148.06 L 343.98,148.98 L 346.47,151.32 L 347.74,152.54 L 350.47,155.27 L 351.84,156.66 L 354.54,159.52 L 355.86,160.94 L 358.28,163.66 L 359.42,164.98 L 361.28,167.29 L 361.70,167.83 L 362.39,168.78 L 363.17,170.00 L 363.52,170.62 L 363.63,170.82 L 363.34,170.41 L 363.00,170.06 L 362.32,169.44 L 361.98,169.26 L 361.31,169.00 L 360.98,169.00 L 359.58,168.66 L 359.00,168.15 L 359.00,167.83 L 358.83,167.18 L 358.59,167.08 L 358.43,167.24 L 358.47,167.80 L 358.76,168.47 L 359.00,168.92 L 359.57,169.88 L 359.94,170.43 L 360.73,171.57 L 361.18,172.17 L 361.97,173.27 L 362.59,174.19 L 362.94,174.73 L 364.07,176.51 L 363.06,175.07 L 361.96,173.59 L 359.40,170.70 L 358.71,169.95 L 357.16,168.35 L 354.51,165.72 L 353.14,164.39 L 350.81,161.98 L 349.73,160.83 L 348.04,158.89 L 347.28,157.98 L 346.33,156.61 L 346.14,156.30 L 345.92,155.83 L 345.83,155.31 L 345.88,155.08 L 345.63,154.37 L 345.45,153.97 L 344.82,153.01 L 344.46,152.51 L 343.51,151.40 L 341.83,149.70 L 341.13,149.05 L 340.06,147.96 L 339.58,147.44 L 338.95,146.62 L 338.70,146.24 L 338.53,145.71 L 338.82,145.25 L 338.93,145.21 M 191.50,134.68 L 191.62,134.62 L 193.84,133.63 M 194.54,133.32 L 194.65,133.27 L 195.23,133.02 M 292.97,124.97 L 293.73,125.18 L 295.03,125.57 L 295.64,125.76 L 296.59,126.09 L 297.01,126.25 L 297.57,126.51 L 297.79,126.63 L 297.90,126.81 L 297.50,126.96 L 297.36,126.97 L 297.31,127.15 L 297.32,127.26 L 297.53,127.59 L 299.00,129.00 L 299.37,129.29 L 299.88,129.78 L 300.10,130.01 L 300.33,130.36 L 300.41,130.53 L 300.37,130.75 L 300.32,130.85 L 300.05,130.93 L 299.72,130.98 L 298.46,130.66 L 297.75,130.42 L 295.87,129.49 L 295.39,129.23 L 294.03,128.66 L 293.29,128.36 L 291.46,127.73 L 290.49,127.41 L 290.21,127.32 L 291.19,127.58 L 291.65,127.69 L 292.43,127.87 L 292.58,127.89 L 293.47,127.52 L 293.69,126.88 L 293.64,126.49 L 293.41,125.68 L 293.14,125.33 L 292.73,124.90 M 197.93,119.12 L 198.02,119.15 L 197.83,119.38 L 197.68,119.52 L 197.03,119.95 L 196.65,120.19 L 195.54,120.81 L 194.93,121.15 L 193.37,121.96 L 192.53,122.39 L 190.53,123.38 L 187.03,125.08 L 185.65,125.74 L 183.13,126.88 L 181.94,127.40 L 179.95,128.21 L 179.04,128.56 L 177.79,128.95 L 177.54,129.02 L 177.20,129.06 L 177.07,129.06 L 177.00,128.97 L 177.00,128.86 L 177.63,128.36 L 178.03,128.07 L 179.32,127.29 L 180.03,126.88 L 181.80,125.93 L 182.72,125.44 L 184.77,124.40 L 186.86,123.36 L 191.09,121.43 L 192.09,120.99 L 193.86,120.26 L 196.00,119.50 L 196.56,119.33 L 197.33,119.15 L 197.65,119.09 M 215.00,123.15 L 210.94,124.19 L 209.92,124.55 L 209.57,124.72 L 209.04,125.01 L 209.10,124.91 L 209.97,124.40 L 210.25,124.28 L 211.00,124.03 L 211.42,123.90 L 212.50,123.64 L 213.08,123.51 L 214.54,123.22 L 215.33,123.07 L 215.73,123.00 M 280.27,124.64 L 280.49,124.70 L 279.15,124.39 M 237.77,120.11 L 238.10,120.13 L 238.52,120.26 L 239.00,121.00 L 239.00,121.14 L 238.70,121.39 L 238.51,121.51 L 237.90,121.71 L 235.25,122.02 L 234.73,122.02 L 233.11,122.18 L 232.23,122.28 L 230.07,122.60 L 223.58,123.82 L 226.92,123.05 L 229.06,122.53 L 229.93,122.30 L 231.53,121.86 L 232.05,121.69 L 232.90,121.39 L 232.97,121.31 L 232.69,121.12 L 232.00,121.07 L 231.45,121.09 L 230.22,121.14 L 229.45,121.19 L 227.82,121.33 L 226.90,121.42 L 222.96,121.87 L 220.89,122.16 L 219.89,122.32 L 220.66,122.20 L 224.93,121.55 L 226.46,121.32 L 229.04,120.95 L 230.26,120.78 L 232.29,120.51 L 233.23,120.39 L 234.76,120.22 L 235.46,120.15 L 236.55,120.09 L 237.05,120.07 M 277.03,121.64 L 277.32,121.68 L 276.83,121.61 M 256.91,120.08 L 256.51,120.07 L 256.50,120.06 M 280.91,113.83 L 282.31,114.12 L 284.85,114.73 L 286.06,115.03 L 288.06,115.61 L 288.97,115.90 L 290.21,116.42 L 291.00,117.08 L 291.00,117.40 L 290.34,117.75 L 289.92,117.87 L 288.50,117.84 L 287.71,117.78 L 285.65,117.38 L 284.56,117.13 L 282.00,116.37 L 281.38,116.17 L 279.38,115.66 L 278.29,115.39 L 275.59,114.79 L 273.64,114.41 L 274.54,114.57 L 275.13,114.68 L 276.10,114.86 L 276.19,114.87 L 276.84,114.70 L 277.28,114.36 L 277.43,114.11 L 277.52,113.63 L 277.35,113.34 L 277.15,113.20 L 276.87,113.05 M 232.74,111.21 L 233.68,111.29 L 234.74,111.54 L 235.07,111.69 L 235.39,111.95 L 235.48,112.07 L 235.27,112.31 L 235.10,112.43 L 234.33,112.68 L 232.50,113.10 L 231.11,113.37 L 228.64,113.71 L 227.48,113.85 L 225.63,113.91 L 224.81,113.91 L 223.80,113.69 L 223.61,113.62 L 223.43,113.43 L 223.37,113.32 L 223.46,113.06 L 223.57,112.89 L 224.10,112.58 L 224.41,112.42 L 225.27,112.13 L 226.20,111.86 L 228.61,111.46 L 229.83,111.29 L 232.19,111.20 M 264.00,111.43 L 265.14,111.48 L 267.11,111.66 L 265.74,111.57 L 264.50,111.52 L 255.63,111.09 L 255.50,111.07 M 166.21,150.10 L 168.88,148.16 L 174.30,144.36 L 177.11,142.60 L 182.78,139.19 L 185.71,137.64 L 189.51,135.70 L 185.53,137.73 L 182.62,139.29 L 176.98,142.70 L 174.18,144.45 L 168.79,148.23 L 166.13,150.17 L 161.00,154.33 L 153.65,160.96 L 161.06,154.28 Z" fill="rgba(179,139,70,1)"/>
<path d="M 209.41,394.32 L 210.07,395.05 L 210.33,395.46 L 210.46,396.50 L 210.46,397.02 L 210.05,397.96 L 208.84,398.79 L 208.39,398.88 L 207.50,398.73 L 207.09,398.62 L 206.59,398.15 L 206.34,397.74 L 206.28,396.81 L 206.32,396.34 L 206.71,395.45 L 206.95,395.04 L 207.65,394.46 L 208.88,394.21 M 135.25,332.42 L 136.93,334.59 L 140.04,338.53 L 141.57,340.44 L 144.45,343.90 L 145.87,345.58 L 148.58,348.64 L 149.92,350.13 L 152.54,352.87 L 155.14,355.53 L 160.36,360.18 L 168.78,366.72 L 169.68,367.37 L 171.79,368.77 L 172.88,369.48 L 175.26,370.97 L 177.68,372.45 L 182.67,375.29 L 183.88,375.96 L 186.14,377.15 L 187.23,377.72 L 189.13,378.65 L 190.03,379.07 L 191.42,379.64 L 192.76,380.00 L 192.95,380.00 L 193.91,380.24 L 194.47,380.40 L 196.00,380.91 L 196.83,381.19 L 198.75,381.90 L 201.83,383.10 L 202.89,383.53 L 204.99,384.30 L 206.02,384.68 L 207.91,385.30 L 208.81,385.58 L 210.27,385.97 L 211.75,386.22 L 212.37,386.23 L 213.34,386.49 L 214.00,387.09 L 214.00,387.33 L 214.41,387.53 L 215.40,387.40 L 215.78,387.25 L 216.58,387.34 L 217.47,387.95 L 217.65,388.25 L 218.17,388.58 L 218.90,388.56 L 219.01,388.50 L 219.94,388.53 L 220.51,388.57 L 222.21,388.80 L 223.13,388.93 L 225.37,389.31 L 229.08,390.03 L 230.38,390.30 L 232.76,390.79 L 233.91,391.02 L 235.82,391.41 L 236.71,391.58 L 237.95,391.83 L 238.81,391.99 L 238.89,391.99 L 238.85,392.29 L 238.50,393.00 L 238.35,393.25 L 237.43,393.58 L 236.88,393.72 L 235.31,393.83 L 234.46,393.86 L 232.41,393.74 L 231.35,393.65 L 229.00,393.29 L 223.91,392.41 L 213.74,389.95 L 208.69,388.61 L 198.87,385.34 L 196.46,384.48 L 191.76,382.62 L 189.43,381.67 L 184.95,379.66 L 182.73,378.63 L 178.50,376.47 L 172.50,373.10 L 171.05,372.22 L 168.50,370.65 L 167.27,369.89 L 165.08,368.47 L 162.95,367.08 L 159.30,364.37 L 157.49,362.98 L 153.80,359.75 L 152.84,358.88 L 150.74,356.92 L 147.25,353.56 L 146.24,352.58 L 144.52,350.88 L 143.70,350.07 L 142.36,348.69 L 141.74,348.05 L 140.77,346.98 L 140.33,346.49 L 139.72,345.72 L 139.45,345.37 L 139.18,344.88 L 139.09,344.67 L 139.15,344.44 L 139.22,344.36 L 139.59,344.37 L 140.50,344.64 L 140.98,344.82 L 141.59,344.77 L 141.83,344.68 L 141.96,344.20 L 141.96,343.93 L 141.60,343.20 L 140.51,342.01 L 140.10,341.67 L 139.60,340.91 L 139.50,340.00 L 139.63,339.79 L 139.42,339.10 L 138.54,338.03 L 138.34,337.87 L 137.82,337.28 L 137.55,336.95 L 136.92,336.11 L 135.06,333.17 L 133.01,329.50 M 347.17,351.78 L 346.61,352.38 L 346.25,352.77 L 345.01,354.03 L 342.47,356.54 L 339.63,359.32 L 333.35,364.57 L 330.13,367.12 L 323.25,371.80 L 319.75,374.06 L 312.51,378.02 L 301.50,382.99 L 299.85,383.63 L 296.82,385.15 L 296.14,385.52 L 295.06,386.21 L 294.00,387.09 L 293.73,387.41 L 292.53,388.11 L 291.84,388.46 L 289.98,389.18 L 288.98,389.54 L 286.68,390.24 L 285.50,390.58 L 283.00,391.19 L 281.74,391.48 L 279.27,391.96 L 278.05,392.17 L 275.83,392.46 L 274.78,392.58 L 273.05,392.62 L 272.26,392.61 L 271.25,392.36 L 270.60,392.09 L 270.08,391.53 L 269.94,391.25 L 270.44,390.68 L 270.82,390.39 L 272.34,389.82 L 275.75,388.96 L 278.38,388.42 L 283.72,387.01 L 286.40,386.26 L 291.81,384.44 L 294.51,383.48 L 299.91,381.28 L 302.60,380.14 L 307.92,377.60 L 310.56,376.29 L 315.73,373.45 L 318.29,371.99 L 323.24,368.88 L 325.68,367.29 L 330.34,363.94 L 336.93,358.68 L 337.67,358.04 L 339.07,356.91 L 339.75,356.38 L 340.91,355.54 L 341.45,355.16 L 342.24,354.70 L 342.86,354.53 L 342.93,354.60 L 343.31,354.51 L 343.53,354.43 L 344.14,354.07 L 346.50,352.27 L 346.72,352.08 L 346.99,351.86 L 347.10,351.77 L 347.16,351.75 M 317.83,388.13 L 318.12,388.16 L 318.52,388.37 L 318.69,388.51 L 318.89,388.96 L 319.00,389.93 L 319.00,390.32 L 318.87,390.91 L 318.78,391.18 L 318.44,391.55 L 318.24,391.71 L 317.65,391.90 L 316.43,392.00 L 315.95,392.00 L 315.24,391.91 L 314.92,391.85 L 314.50,391.61 L 314.32,391.47 L 314.16,391.07 L 314.11,390.85 L 314.19,390.25 L 314.28,389.77 L 315.08,388.92 L 316.76,388.18 L 317.19,388.12 M 326.57,385.42 L 326.81,386.74 L 326.72,387.24 L 326.12,388.01 L 325.78,388.35 L 324.89,388.73 L 324.44,388.87 L 323.56,388.79 L 323.14,388.69 L 322.53,388.06 L 322.29,387.66 L 322.21,386.92 L 322.23,386.56 L 322.61,385.94 L 322.85,385.66 L 323.62,385.26 L 325.13,385.00 L 325.82,385.00 M 221.71,379.72 L 222.18,379.90 L 222.66,380.61 L 222.82,380.99 L 222.74,381.88 L 222.63,382.32 L 222.06,383.10 L 220.74,383.81 L 220.26,383.90 L 219.32,383.56 L 218.88,383.31 L 218.35,382.47 L 218.17,382.00 L 218.27,381.12 L 218.39,380.71 L 218.97,380.08 L 219.31,379.80 L 220.20,379.54 M 330.27,380.00 L 330.61,380.32 L 330.76,380.52 L 330.90,381.11 L 330.79,382.14 L 330.62,382.65 L 330.29,382.90 L 330.11,382.90 L 329.58,382.13 L 329.37,381.79 L 329.21,381.06 L 329.40,380.27 L 329.62,380.04 L 330.06,379.98 M 212.67,373.54 L 213.13,373.87 L 213.88,374.88 L 214.21,375.41 L 214.55,376.61 L 214.43,378.33 L 214.24,378.80 L 213.51,379.53 L 213.10,379.85 L 212.05,380.23 L 211.50,380.37 L 210.33,380.35 L 209.74,380.29 L 208.64,379.82 L 208.25,379.60 L 207.68,379.02 L 207.44,378.71 L 207.16,378.01 L 206.95,377.28 L 207.28,375.74 L 207.55,375.00 L 208.71,373.82 L 209.04,373.57 L 209.83,373.22 L 211.16,373.00 L 211.69,373.00 M 299.91,249.55 L 300.72,249.57 L 302.19,249.66 L 303.98,249.84 L 307.46,250.34 L 303.98,251.48 L 302.80,251.87 L 300.93,253.19 L 298.75,256.06 L 298.55,256.45 L 298.22,257.35 L 298.07,257.84 L 297.81,259.12 L 297.69,259.84 L 297.50,261.76 L 297.42,262.83 L 297.28,265.64 L 297.25,266.41 L 297.20,268.17 L 297.18,269.08 L 297.14,271.14 L 297.12,272.22 L 297.09,274.62 L 297.08,275.87 L 297.05,278.64 L 297.04,280.08 L 297.03,283.26 L 297.02,284.90 L 297.01,288.51 L 297.01,290.38 L 297.00,294.46 L 297.00,301.14 L 297.00,303.97 L 297.00,309.15 L 297.00,311.65 L 296.98,316.20 L 296.97,318.41 L 296.95,322.38 L 296.93,324.31 L 296.89,327.76 L 296.86,329.42 L 296.79,332.40 L 296.75,333.84 L 296.65,336.39 L 296.59,337.62 L 296.45,339.80 L 296.38,340.85 L 296.20,342.70 L 296.01,344.48 L 295.49,347.27 L 295.21,348.57 L 294.45,350.69 L 294.04,351.71 L 293.02,353.57 L 291.13,356.49 L 290.62,357.25 L 289.36,358.68 L 288.69,359.38 L 287.17,360.68 L 285.59,361.95 L 281.86,364.01 L 279.94,364.94 L 275.82,366.17 L 274.79,366.41 L 272.72,366.72 L 269.66,366.86 L 267.97,366.83 L 264.65,366.64 L 263.89,366.59 L 262.61,366.47 L 262.03,366.41 L 261.25,366.29 L 260.67,366.18 L 259.84,365.94 L 259.49,365.82 L 259.08,365.56 L 258.92,365.43 L 258.91,365.18 L 258.95,365.05 L 259.29,364.81 L 259.51,364.70 L 260.19,364.49 L 260.57,364.39 L 261.56,364.23 L 262.09,364.16 L 263.36,364.06 L 265.54,364.00 L 266.91,364.00 L 269.39,363.81 L 270.59,363.69 L 272.77,363.23 L 273.82,362.96 L 275.72,362.21 L 276.65,361.79 L 278.32,360.71 L 279.13,360.12 L 280.61,358.69 L 281.33,357.93 L 282.64,356.12 L 283.28,355.17 L 284.47,352.96 L 286.16,349.17 L 286.70,347.80 L 287.43,345.20 L 287.58,344.46 L 287.83,342.62 L 287.95,341.63 L 288.12,339.05 L 288.16,338.34 L 288.23,336.74 L 288.26,335.90 L 288.32,334.01 L 288.35,333.02 L 288.39,330.79 L 288.41,329.64 L 288.45,327.04 L 288.47,325.70 L 288.50,322.69 L 288.52,321.14 L 288.55,317.69 L 288.56,315.91 L 288.59,311.98 L 288.63,305.50 L 288.65,302.61 L 288.68,297.33 L 288.69,294.77 L 288.71,290.13 L 288.72,287.88 L 288.72,283.82 L 288.72,281.85 L 288.70,278.33 L 288.70,276.64 L 288.66,273.61 L 288.64,272.16 L 288.58,269.59 L 288.55,268.36 L 288.46,266.19 L 288.42,265.16 L 288.30,263.36 L 288.24,262.50 L 288.08,261.02 L 288.00,260.32 L 287.82,259.12 L 287.62,257.97 L 287.10,256.32 L 286.82,255.57 L 286.10,254.44 L 284.80,252.95 L 281.85,250.00 L 285.67,249.88 L 286.20,249.87 L 287.59,249.82 L 288.33,249.80 L 289.99,249.74 L 295.00,249.55 L 296.51,249.49 M 368.40,360.32 L 368.84,360.49 L 369.53,361.18 L 370.00,362.36 L 370.00,362.85 L 369.57,363.59 L 369.31,363.92 L 368.54,364.30 L 368.13,364.44 L 367.26,364.36 L 366.84,364.26 L 366.13,363.66 L 365.78,363.24 L 365.62,362.32 L 365.61,361.87 L 366.00,361.08 L 366.24,360.72 L 367.01,360.29 M 360.96,359.27 L 362.03,360.06 L 362.31,360.50 L 362.51,361.27 L 362.55,361.63 L 362.30,362.20 L 362.11,362.46 L 361.43,362.79 L 359.94,363.00 L 359.40,363.00 L 358.57,362.55 L 358.22,362.28 L 358.00,361.47 L 358.00,360.95 L 358.48,360.14 L 358.78,359.78 L 359.63,359.36 L 360.06,359.20 M 367.23,352.28 L 367.99,352.99 L 368.50,354.43 L 368.50,354.99 L 368.25,355.80 L 368.08,356.16 L 367.55,356.56 L 367.24,356.71 L 366.47,356.67 L 366.06,356.59 L 365.10,356.08 L 364.63,355.79 L 364.25,354.91 L 364.14,354.46 L 364.39,353.53 L 364.57,353.09 L 365.29,352.45 L 366.75,352.19 M 373.21,345.28 L 374.06,345.90 L 374.79,347.14 L 374.88,347.61 L 374.61,348.39 L 374.42,348.75 L 373.74,349.22 L 373.36,349.40 L 372.44,349.47 L 371.97,349.44 L 371.01,349.01 L 370.56,348.73 L 370.22,347.88 L 370.13,347.44 L 370.39,346.52 L 370.59,346.09 L 371.31,345.45 L 372.74,345.19 M 128.78,341.34 L 129.14,341.55 L 129.55,342.20 L 129.69,342.54 L 129.61,343.35 L 128.87,344.56 L 128.44,344.99 L 127.49,345.34 L 127.02,345.42 L 126.10,345.06 L 125.68,344.80 L 125.30,343.99 L 125.19,343.56 L 125.35,342.64 L 125.50,342.20 L 126.11,341.49 L 127.41,341.00 L 127.96,341.00 M 386.54,265.47 L 386.68,265.57 L 386.86,266.13 L 386.93,266.46 L 386.97,267.41 L 386.97,267.94 L 386.89,269.26 L 386.83,269.95 L 386.63,271.58 L 386.52,272.43 L 386.21,274.32 L 385.88,276.27 L 384.95,280.76 L 384.45,283.08 L 383.23,288.02 L 382.59,290.51 L 381.17,295.52 L 380.44,297.99 L 378.89,302.70 L 376.53,309.00 L 375.87,310.57 L 374.04,314.29 L 373.05,316.22 L 370.75,320.39 L 369.55,322.49 L 367.01,326.74 L 365.73,328.83 L 363.20,332.78 L 361.95,334.69 L 359.66,337.98 L 359.12,338.74 L 358.12,340.08 L 357.63,340.71 L 356.77,341.76 L 356.36,342.24 L 355.68,342.95 L 355.36,343.26 L 354.89,343.59 L 354.67,343.70 L 354.43,343.59 L 354.34,343.48 L 354.36,342.90 L 354.38,342.79 L 354.53,342.40 L 354.63,342.17 L 354.93,341.57 L 355.27,340.92 L 356.33,339.12 L 356.91,338.16 L 358.34,335.90 L 360.76,332.27 L 362.70,329.43 L 366.33,323.53 L 368.09,320.55 L 371.28,314.49 L 372.82,311.46 L 375.50,305.40 L 378.87,296.50 L 379.68,294.05 L 381.20,288.75 L 381.93,286.10 L 383.15,280.91 L 383.43,279.65 L 383.92,277.27 L 384.14,276.11 L 384.50,274.00 L 384.66,272.99 L 384.87,271.24 L 385.00,269.10 L 385.00,268.28 L 385.29,266.81 L 385.38,266.49 L 385.61,265.98 L 386.00,265.50 L 386.22,265.36 M 151.13,331.73 L 151.44,332.04 L 151.75,332.99 L 151.66,334.43 L 151.49,334.88 L 150.85,335.49 L 150.50,335.75 L 149.67,335.95 L 149.24,336.00 L 148.42,335.77 L 148.04,335.59 L 147.44,334.90 L 147.18,334.48 L 147.37,333.49 L 147.56,333.00 L 148.36,332.15 L 148.80,331.77 L 149.81,331.39 M 353.98,325.20 L 354.40,325.33 L 355.15,325.81 L 355.50,326.08 L 356.07,326.79 L 356.33,327.16 L 356.65,328.00 L 356.78,328.42 L 356.80,329.30 L 356.76,329.74 L 356.41,330.58 L 355.42,331.68 L 354.84,332.11 L 353.95,332.63 L 353.54,332.83 L 352.84,332.90 L 352.49,332.88 L 351.79,332.49 L 351.42,332.24 L 350.52,331.38 L 350.03,330.89 L 349.48,329.87 L 349.27,329.35 L 349.26,328.33 L 349.32,327.82 L 349.86,326.87 L 351.25,325.61 L 351.72,325.32 L 352.65,325.09 L 353.11,325.03 M 106.03,266.89 L 106.35,267.59 L 106.52,268.05 L 106.97,269.61 L 107.21,270.50 L 107.77,272.92 L 108.73,277.49 L 109.52,281.51 L 111.30,288.83 L 112.24,292.40 L 114.41,299.12 L 115.57,302.44 L 118.28,308.94 L 123.09,318.89 L 123.84,320.32 L 125.10,322.79 L 125.69,323.96 L 126.65,325.91 L 127.08,326.82 L 127.72,328.25 L 128.00,328.91 L 128.33,329.82 L 128.45,330.22 L 128.47,330.62 L 128.44,330.76 L 128.14,330.64 L 127.95,330.52 L 127.35,329.90 L 127.00,329.52 L 126.08,328.38 L 125.19,327.24 L 123.30,324.23 L 122.34,322.61 L 120.38,318.80 L 119.40,316.81 L 117.45,312.41 L 116.48,310.15 L 114.62,305.36 L 113.71,302.94 L 112.01,297.98 L 111.19,295.50 L 109.75,290.57 L 109.06,288.13 L 109.04,288.04 L 109.15,288.25 L 109.67,289.17 L 109.89,289.49 L 110.29,290.00 L 110.38,290.00 L 110.54,289.62 L 110.54,289.04 L 110.50,288.61 L 110.21,286.63 L 109.96,285.43 L 109.39,282.97 L 109.07,281.90 L 108.75,280.88 L 108.60,280.47 L 108.29,279.73 L 108.15,279.50 L 107.54,278.64 L 107.30,278.50 L 107.26,278.68 L 107.23,279.21 L 107.28,279.76 L 107.35,280.33 L 106.71,276.93 L 106.45,275.21 L 106.10,272.45 L 105.94,271.17 L 105.78,269.28 L 105.72,268.44 L 105.73,267.42 L 105.76,267.01 L 105.93,266.86 M 118.59,299.47 L 118.71,299.61 L 119.01,300.13 L 120.03,302.68 L 120.20,303.21 L 120.77,304.68 L 121.09,305.46 L 121.90,307.35 L 122.77,309.31 L 124.93,313.89 L 126.04,316.19 L 128.29,320.59 L 128.84,321.63 L 129.84,323.47 L 131.16,325.75 L 131.69,326.61 L 132.32,327.82 L 132.56,328.33 L 132.62,328.84 L 132.58,329.00 L 132.09,328.78 L 131.77,328.57 L 130.73,327.58 L 130.50,327.36 L 129.97,326.68 L 129.70,326.31 L 129.09,325.39 L 128.47,324.40 L 127.05,321.84 L 126.33,320.49 L 124.83,317.43 L 124.08,315.87 L 122.62,312.64 L 121.91,311.04 L 120.65,307.96 L 120.06,306.47 L 119.13,303.86 L 118.93,303.25 L 118.61,302.18 L 118.47,301.68 L 118.28,300.84 L 118.20,300.45 L 118.17,299.88 L 118.30,299.37 L 118.37,299.30 M 144.99,325.01 L 145.81,326.25 L 145.87,326.58 L 145.83,327.08 L 145.78,327.30 L 145.49,327.62 L 145.31,327.75 L 144.73,327.91 L 143.50,328.00 L 143.00,328.00 L 142.27,327.91 L 141.94,327.85 L 141.51,327.62 L 141.33,327.48 L 141.17,327.08 L 141.12,326.85 L 141.19,326.25 L 141.28,325.77 L 142.01,325.01 L 143.50,324.50 L 144.04,324.50 M 361.21,318.28 L 362.06,318.90 L 362.79,320.14 L 362.88,320.61 L 362.61,321.39 L 362.42,321.75 L 361.74,322.22 L 361.36,322.40 L 360.44,322.47 L 359.97,322.44 L 359.01,322.01 L 358.56,321.73 L 358.22,320.88 L 358.13,320.44 L 358.39,319.52 L 358.59,319.09 L 359.31,318.45 L 360.74,318.19 M 161.37,284.22 L 161.48,284.35 L 161.66,284.81 L 161.82,285.30 L 161.97,286.77 L 162.01,287.54 L 161.89,289.20 L 161.39,291.42 L 161.23,291.85 L 160.27,292.46 L 159.74,292.73 L 158.45,292.97 L 157.82,293.04 L 156.75,292.84 L 156.52,292.76 L 156.20,292.52 L 156.07,292.38 L 156.00,292.00 L 156.00,291.72 L 156.59,291.29 L 158.00,291.00 L 158.40,291.00 L 159.00,290.85 L 159.26,290.74 L 159.61,290.31 L 159.76,290.05 L 159.92,289.24 L 160.00,287.50 L 160.00,286.54 L 160.29,285.03 L 160.38,284.71 L 160.61,284.28 L 161.00,284.00 L 161.14,284.00 M 228.30,284.23 L 228.43,284.36 L 228.66,284.87 L 228.78,285.18 L 228.97,286.04 L 229.19,287.75 L 229.27,288.78 L 229.75,290.40 L 229.89,290.74 L 230.19,291.20 L 230.67,291.50 L 230.99,291.50 L 231.71,291.72 L 232.58,292.25 L 232.69,292.35 L 232.62,292.54 L 232.55,292.63 L 232.18,292.78 L 230.17,293.00 L 229.40,293.00 L 228.37,292.91 L 227.93,292.83 L 227.43,292.39 L 227.22,292.11 L 227.06,291.05 L 227.01,290.43 L 227.00,288.50 L 227.00,287.82 L 227.08,286.69 L 227.12,286.17 L 227.28,285.35 L 227.37,284.98 L 227.58,284.48 L 227.69,284.27 L 227.93,284.11 L 228.05,284.06 M 215.35,283.29 L 216.50,284.00 L 216.67,284.27 L 216.35,284.71 L 215.12,285.00 L 214.45,285.00 L 213.47,285.27 L 213.05,285.43 L 212.62,285.91 L 212.48,286.17 L 212.67,286.72 L 213.76,287.46 L 214.17,287.62 L 214.68,287.86 L 214.89,287.97 L 214.99,288.18 L 214.99,288.29 L 214.67,288.56 L 213.73,289.13 L 213.23,289.41 L 212.70,290.07 L 212.51,290.40 L 212.54,290.98 L 212.62,291.25 L 213.15,291.53 L 214.43,291.39 L 214.81,291.24 L 215.59,291.33 L 216.46,291.93 L 216.56,292.10 L 216.53,292.38 L 216.47,292.51 L 216.13,292.72 L 215.93,292.81 L 215.30,292.93 L 214.06,293.00 L 213.31,293.00 L 212.31,292.91 L 211.89,292.82 L 211.40,292.34 L 211.21,292.02 L 211.06,290.85 L 211.03,290.50 L 211.01,289.62 L 211.00,289.15 L 211.00,288.00 L 211.00,286.84 L 211.06,285.26 L 211.12,284.58 L 211.37,283.76 L 211.54,283.43 L 212.11,283.13 L 213.44,283.00 L 214.11,283.00 M 176.75,283.57 L 177.13,283.74 L 177.60,283.99 L 177.78,284.11 L 177.82,284.29 L 177.78,284.37 L 177.38,284.51 L 176.25,284.75 L 175.62,284.86 L 174.77,285.16 L 174.42,285.33 L 174.12,285.78 L 174.03,286.02 L 174.26,286.64 L 175.20,287.80 L 175.43,288.03 L 175.72,288.38 L 175.84,288.54 L 175.90,288.75 L 175.20,289.00 L 174.87,289.00 L 174.35,289.29 L 174.00,290.00 L 174.00,290.27 L 174.42,290.71 L 175.44,291.00 L 175.84,291.00 L 176.64,291.29 L 177.50,292.00 L 177.59,292.15 L 177.52,292.40 L 177.45,292.52 L 177.08,292.72 L 175.06,293.00 L 174.32,293.00 L 173.33,292.91 L 172.91,292.83 L 172.42,292.38 L 172.22,292.09 L 172.06,291.03 L 172.01,290.40 L 172.00,288.47 L 172.00,287.26 L 172.28,285.46 L 172.47,284.66 L 173.15,283.66 L 173.54,283.26 L 174.63,283.04 M 247.37,283.59 L 247.96,283.81 L 248.63,284.32 L 248.89,284.57 L 248.96,285.01 L 248.91,285.20 L 248.39,285.41 L 247.00,285.29 L 246.63,285.19 L 246.05,285.14 L 245.79,285.13 L 245.42,285.23 L 245.10,285.36 L 245.05,285.94 L 245.11,286.26 L 245.79,287.01 L 247.57,288.03 L 248.40,288.34 L 249.36,289.24 L 249.73,289.72 L 249.82,290.73 L 249.75,291.22 L 249.00,292.05 L 246.95,292.80 L 246.26,292.88 L 244.96,292.80 L 244.37,292.72 L 243.71,292.38 L 243.36,292.03 L 243.05,291.46 L 242.96,291.21 L 243.16,290.86 L 243.32,290.72 L 243.99,290.61 L 245.50,290.76 L 246.19,290.89 L 247.27,290.80 L 248.00,290.22 L 248.00,289.95 L 247.27,289.33 L 245.50,288.59 L 244.81,288.42 L 243.73,287.75 L 243.00,286.60 L 243.00,286.10 L 243.42,285.19 L 243.68,284.75 L 244.49,284.08 L 244.92,283.78 L 245.90,283.48 M 195.56,284.41 L 196.00,285.39 L 196.00,285.78 L 195.56,286.55 L 194.50,287.36 L 194.09,287.52 L 193.44,288.35 L 193.00,289.91 L 193.00,290.48 L 192.74,291.42 L 192.58,291.84 L 192.10,292.38 L 191.84,292.59 L 191.28,292.63 L 191.00,292.57 L 190.49,291.98 L 190.14,291.42 L 189.55,289.93 L 189.29,289.16 L 188.93,287.61 L 189.08,288.05 L 189.34,288.41 L 189.87,289.00 L 190.12,289.00 L 190.71,288.78 L 190.94,288.41 L 190.96,288.12 L 190.95,287.48 L 191.26,287.99 L 191.52,288.31 L 192.06,288.38 L 192.31,288.33 L 192.72,287.68 L 193.00,285.94 L 193.00,285.41 L 193.44,284.57 L 194.50,284.00 L 194.91,284.00 M 199.70,283.88 L 199.88,284.07 L 200.03,284.33 L 200.08,285.47 L 199.63,287.93 L 199.44,288.56 L 199.12,289.60 L 198.96,290.08 L 198.66,290.86 L 198.38,291.58 L 197.86,292.30 L 197.59,292.55 L 197.01,292.42 L 196.70,292.27 L 195.93,291.42 L 195.64,291.07 L 195.29,290.54 L 195.15,290.29 L 195.10,289.87 L 195.11,289.67 L 195.37,289.29 L 196.10,288.64 L 196.52,288.33 L 197.37,287.32 L 198.28,285.75 L 198.45,285.31 L 198.77,284.67 L 198.92,284.39 L 199.21,284.06 L 199.35,283.93 L 199.59,283.87 M 189.18,284.40 L 189.03,284.53 L 189.04,284.47 L 189.17,284.40 M 189.44,284.46 L 189.46,284.46 L 189.40,284.45 M 97.70,269.53 L 99.07,270.04 L 99.62,270.33 L 100.36,271.18 L 100.67,271.63 L 100.93,272.68 L 100.99,273.22 L 100.75,274.30 L 99.80,275.80 L 99.35,276.25 L 98.30,276.75 L 97.77,276.94 L 96.68,276.93 L 96.15,276.86 L 95.18,276.36 L 94.72,276.05 L 94.04,275.07 L 93.79,274.61 L 93.53,273.70 L 93.43,273.26 L 93.46,272.43 L 93.50,272.03 L 93.77,271.31 L 93.93,270.97 L 94.40,270.40 L 94.66,270.14 L 95.31,269.77 L 95.65,269.61 L 96.43,269.46 L 96.83,269.41 M 228.95,167.11 L 235.78,167.63 L 241.85,168.27 L 242.20,175.88 L 242.25,176.91 L 242.29,178.71 L 242.29,179.57 L 242.26,181.04 L 242.23,181.72 L 242.13,182.81 L 242.08,183.30 L 241.92,183.98 L 241.84,184.27 L 241.64,184.52 L 241.54,184.59 L 241.30,184.37 L 241.18,184.20 L 240.91,183.50 L 240.49,181.85 L 240.25,180.72 L 239.31,178.67 L 238.77,177.68 L 237.30,175.95 L 236.51,175.13 L 234.63,173.76 L 233.64,173.12 L 231.45,172.15 L 230.33,171.72 L 227.94,171.19 L 226.73,170.99 L 224.25,170.94 L 223.01,170.98 L 220.54,171.47 L 216.98,172.83 L 216.17,173.25 L 214.70,174.44 L 213.99,175.08 L 212.75,176.63 L 212.16,177.45 L 211.17,179.27 L 210.72,180.20 L 210.02,182.19 L 209.71,183.20 L 209.33,185.27 L 209.18,186.31 L 209.14,188.35 L 209.17,189.37 L 209.51,191.30 L 210.48,193.96 L 210.58,194.16 L 211.11,194.80 L 211.42,195.16 L 212.34,196.10 L 212.84,196.60 L 214.09,197.78 L 214.76,198.40 L 216.30,199.79 L 217.91,201.22 L 221.80,204.52 L 228.23,209.78 L 229.41,210.72 L 231.57,212.44 L 232.62,213.28 L 234.54,214.83 L 235.47,215.58 L 237.16,216.96 L 237.98,217.63 L 239.46,218.86 L 240.89,220.06 L 243.21,222.09 L 244.29,223.06 L 246.01,224.74 L 246.81,225.55 L 248.07,227.03 L 248.65,227.76 L 249.60,229.17 L 250.04,229.88 L 250.81,231.38 L 251.92,233.89 L 252.48,235.21 L 253.33,237.84 L 253.72,239.15 L 254.24,241.74 L 254.47,243.03 L 254.69,245.56 L 254.76,246.82 L 254.67,249.29 L 254.59,250.51 L 254.22,252.89 L 253.99,254.06 L 253.34,256.33 L 252.98,257.45 L 252.05,259.59 L 251.56,260.65 L 250.38,262.65 L 249.75,263.63 L 248.33,265.48 L 247.58,266.38 L 245.92,268.05 L 245.06,268.86 L 243.17,270.33 L 242.20,271.04 L 240.10,272.30 L 239.02,272.91 L 236.72,273.94 L 235.54,274.42 L 233.04,275.21 L 231.77,275.57 L 229.10,276.09 L 224.89,276.56 L 222.72,276.69 L 218.31,276.52 L 217.26,276.44 L 215.36,276.20 L 214.46,276.06 L 213.00,275.71 L 211.69,275.34 L 209.18,274.40 L 207.95,273.90 L 205.63,272.73 L 204.49,272.12 L 202.37,270.74 L 201.34,270.03 L 199.46,268.46 L 198.55,267.66 L 196.92,265.93 L 196.15,265.05 L 194.82,263.19 L 194.19,262.25 L 193.18,260.28 L 192.05,257.22 L 191.74,256.11 L 191.34,253.76 L 191.18,252.57 L 191.07,250.11 L 191.05,248.87 L 191.21,246.35 L 191.32,245.09 L 191.74,242.59 L 191.98,241.35 L 192.64,238.93 L 193.00,237.74 L 193.90,235.46 L 194.38,234.35 L 195.49,232.29 L 197.40,229.50 L 197.85,228.94 L 198.60,228.11 L 198.94,227.75 L 199.48,227.30 L 199.72,227.12 L 200.04,227.03 L 200.18,227.03 L 200.29,227.29 L 200.31,227.47 L 200.21,228.07 L 200.13,228.42 L 199.80,229.35 L 199.62,229.85 L 199.07,231.10 L 198.01,233.31 L 197.08,235.15 L 195.75,238.62 L 195.17,240.34 L 194.51,243.66 L 194.26,245.32 L 194.26,248.64 L 194.97,253.78 L 195.22,254.89 L 195.79,256.72 L 196.11,257.60 L 196.92,259.16 L 197.37,259.93 L 198.58,261.49 L 201.00,264.09 L 201.99,265.08 L 204.10,266.76 L 205.17,267.55 L 207.43,268.85 L 208.57,269.45 L 210.93,270.37 L 212.12,270.79 L 214.54,271.36 L 215.76,271.60 L 218.20,271.82 L 219.43,271.89 L 221.86,271.79 L 223.07,271.70 L 225.45,271.28 L 226.63,271.03 L 228.91,270.31 L 230.04,269.91 L 232.19,268.91 L 233.24,268.37 L 235.22,267.09 L 236.19,266.41 L 237.95,264.87 L 238.81,264.07 L 240.32,262.29 L 241.05,261.36 L 242.27,259.35 L 242.84,258.31 L 243.74,256.07 L 244.14,254.93 L 244.66,252.49 L 244.99,248.62 L 244.99,247.17 L 244.81,244.57 L 244.68,243.30 L 244.15,240.95 L 243.84,239.80 L 242.85,237.55 L 242.30,236.43 L 240.76,234.15 L 239.91,232.99 L 237.70,230.52 L 236.50,229.25 L 233.52,226.46 L 231.93,225.01 L 228.07,221.74 L 227.05,220.89 L 224.82,219.07 L 221.19,216.15 L 220.15,215.33 L 218.26,213.82 L 217.34,213.08 L 215.68,211.74 L 214.06,210.44 L 211.43,208.26 L 210.20,207.23 L 208.25,205.50 L 207.35,204.68 L 205.95,203.27 L 205.31,202.58 L 204.34,201.35 L 203.89,200.74 L 203.22,199.55 L 201.73,195.50 L 201.35,194.21 L 201.01,191.55 L 200.91,190.21 L 201.10,187.53 L 201.25,186.20 L 201.93,183.57 L 202.32,182.27 L 203.45,179.77 L 204.06,178.54 L 205.59,176.25 L 206.41,175.14 L 208.31,173.13 L 209.31,172.17 L 211.54,170.53 L 215.23,168.55 L 216.22,168.14 L 218.72,167.56 L 220.05,167.32 L 223.28,167.09 L 224.98,167.01 M 266.45,258.30 L 267.43,259.44 L 267.86,259.97 L 268.54,261.62 L 269.00,264.12 L 269.00,264.87 L 269.44,266.49 L 270.50,268.35 L 270.85,268.71 L 271.24,269.67 L 271.39,270.17 L 271.39,271.20 L 271.35,271.70 L 271.00,272.47 L 270.09,273.00 L 269.99,273.00 L 269.72,272.59 L 269.58,272.32 L 269.24,271.46 L 269.06,270.98 L 268.70,269.79 L 268.52,269.16 L 268.16,267.75 L 267.85,266.40 L 267.34,264.21 L 267.10,263.19 L 266.74,261.59 L 266.57,260.86 L 266.36,259.80 L 266.26,259.33 L 266.19,258.73 L 266.17,258.48 L 266.22,258.26 L 266.26,258.19 M 123.93,262.96 L 124.34,263.21 L 124.70,264.02 L 124.82,264.45 L 124.65,265.36 L 124.51,265.80 L 123.91,266.51 L 122.64,267.00 L 122.25,267.00 L 121.47,266.58 L 121.11,266.32 L 120.67,265.57 L 120.49,265.10 L 120.63,264.22 L 120.76,263.80 L 121.37,263.15 L 121.72,262.88 L 122.58,262.65 M 405.88,263.83 L 406.50,265.00 L 406.50,265.41 L 405.81,266.16 L 404.16,266.83 L 403.71,266.90 L 403.05,266.90 L 402.75,266.89 L 402.39,266.71 L 402.23,266.60 L 402.11,266.20 L 402.08,265.97 L 402.17,265.33 L 402.28,264.78 L 403.03,264.05 L 403.45,263.74 L 404.50,263.53 L 405.01,263.49 M 403.87,251.94 L 404.26,252.15 L 404.73,252.91 L 404.68,254.40 L 404.50,254.86 L 403.86,255.48 L 403.51,255.74 L 402.67,255.95 L 402.25,256.00 L 401.43,255.77 L 401.04,255.60 L 400.44,254.90 L 400.25,254.60 L 400.36,253.73 L 401.13,252.44 L 401.57,252.01 L 402.54,251.70 L 403.02,251.63 M 107.55,230.57 L 107.62,230.94 L 107.68,232.12 L 107.69,232.76 L 107.65,234.35 L 107.62,235.18 L 107.49,237.02 L 107.35,238.87 L 106.86,242.53 L 106.72,243.38 L 106.42,244.85 L 105.94,246.50 L 105.78,246.88 L 105.55,247.26 L 105.44,247.38 L 105.29,247.22 L 105.22,247.06 L 105.14,246.32 L 105.10,245.87 L 105.07,244.50 L 105.05,242.90 L 105.23,239.53 L 105.34,237.87 L 105.73,234.85 L 105.84,234.14 L 106.07,232.90 L 106.19,232.31 L 106.45,231.36 L 106.58,230.94 L 106.84,230.36 L 107.24,230.00 L 107.38,230.00 M 182.03,237.75 L 182.98,238.22 L 183.43,238.50 L 184.27,239.28 L 184.67,239.69 L 185.31,240.57 L 185.58,241.00 L 185.88,241.76 L 185.77,242.53 L 185.70,242.60 L 184.92,242.26 L 184.46,242.04 L 183.25,241.27 L 182.51,240.77 L 181.56,239.70 L 181.16,239.18 L 180.91,238.32 L 180.88,237.95 L 181.37,237.65 L 181.55,237.62 M 101.25,231.18 L 101.87,231.27 L 102.84,231.85 L 103.50,233.00 L 103.50,233.41 L 102.84,234.15 L 101.25,234.82 L 100.82,234.88 L 100.17,234.87 L 99.88,234.84 L 99.48,234.62 L 99.30,234.48 L 99.11,234.01 L 99.03,233.75 L 99.00,233.00 L 99.00,232.59 L 99.11,231.99 L 99.18,231.72 L 99.48,231.38 L 99.65,231.24 L 100.17,231.13 M 383.20,220.52 L 383.35,220.85 L 383.69,221.89 L 384.04,223.03 L 384.77,226.11 L 385.11,227.65 L 385.58,230.44 L 385.67,231.05 L 385.74,231.96 L 385.64,232.69 L 385.56,232.77 L 385.09,232.25 L 384.82,231.89 L 384.18,230.75 L 383.81,230.05 L 383.20,227.88 L 382.92,226.74 L 382.55,224.32 L 382.40,223.15 L 382.38,221.28 L 382.40,220.89 L 382.52,220.35 L 382.83,220.00 L 382.93,220.00 M 128.88,223.83 L 129.50,225.00 L 129.50,225.41 L 128.81,226.16 L 127.16,226.83 L 126.71,226.90 L 126.05,226.90 L 125.75,226.89 L 125.39,226.71 L 125.23,226.60 L 125.11,226.20 L 125.08,225.97 L 125.17,225.33 L 125.28,224.78 L 126.03,224.05 L 126.45,223.74 L 127.50,223.53 L 128.01,223.49 M 376.37,220.42 L 377.71,221.29 L 378.17,221.74 L 378.58,222.63 L 378.71,223.07 L 378.52,223.83 L 378.35,224.18 L 377.61,224.68 L 375.94,225.00 L 375.31,225.00 L 374.50,224.50 L 374.17,224.17 L 374.00,223.06 L 374.00,222.39 L 374.32,221.39 L 374.53,220.95 L 375.17,220.48 L 375.52,220.31 M 130.61,210.51 L 131.14,210.77 L 132.01,211.60 L 132.80,213.24 L 132.88,213.62 L 132.55,214.64 L 132.33,215.16 L 131.59,216.20 L 131.20,216.70 L 130.29,217.47 L 129.00,218.00 L 128.76,218.00 L 127.92,217.52 L 127.47,217.23 L 126.52,216.38 L 126.03,215.89 L 125.48,214.87 L 125.27,214.35 L 125.26,213.33 L 125.32,212.82 L 125.86,211.87 L 127.25,210.61 L 127.76,210.29 L 128.91,210.13 L 129.49,210.12 M 374.51,212.51 L 375.00,214.00 L 375.00,214.48 L 374.54,215.23 L 374.25,215.56 L 373.41,215.95 L 372.96,216.10 L 372.01,216.06 L 371.54,215.97 L 370.74,215.40 L 370.46,215.12 L 370.37,214.40 L 370.39,214.03 L 370.79,213.28 L 371.04,212.93 L 371.78,212.37 L 373.11,212.00 L 373.72,212.00 M 232.69,121.12 L 232.97,121.31 L 232.90,121.39 L 232.05,121.69 L 231.53,121.86 L 229.93,122.30 L 229.06,122.53 L 226.92,123.05 L 223.35,123.87 L 220.02,124.60 L 213.50,126.37 L 210.26,127.31 L 203.93,129.51 L 200.78,130.66 L 194.65,133.27 L 191.62,134.62 L 185.71,137.64 L 182.78,139.19 L 177.11,142.60 L 174.30,144.36 L 168.88,148.16 L 166.21,150.10 L 161.06,154.28 L 153.65,160.96 L 152.21,162.35 L 149.58,164.99 L 148.30,166.29 L 145.97,168.76 L 144.84,169.99 L 142.78,172.34 L 141.78,173.50 L 139.96,175.76 L 138.20,178.00 L 135.29,182.37 L 131.63,189.00 L 131.20,189.89 L 130.37,191.56 L 129.97,192.37 L 129.25,193.74 L 128.92,194.37 L 128.41,195.29 L 127.94,196.00 L 127.87,196.07 L 127.62,196.45 L 127.49,196.68 L 127.16,197.31 L 126.07,199.75 L 125.75,200.55 L 125.17,201.68 L 124.89,202.17 L 124.37,202.72 L 124.10,202.93 L 123.57,202.94 L 123.30,202.88 L 122.71,202.38 L 122.62,202.28 L 122.62,201.81 L 122.65,201.53 L 122.90,200.73 L 123.05,200.29 L 123.50,199.19 L 123.75,198.61 L 124.40,197.26 L 125.08,195.86 L 126.91,192.50 L 127.88,190.75 L 130.12,186.95 L 131.28,185.03 L 133.74,181.13 L 134.97,179.20 L 137.44,175.54 L 138.65,173.78 L 140.92,170.71 L 141.46,169.99 L 142.48,168.73 L 143.88,167.13 L 144.68,166.27 L 145.83,164.92 L 146.05,164.64 L 146.33,164.25 L 146.40,164.00 L 146.35,164.00 L 146.40,163.84 L 146.46,163.74 L 146.71,163.41 L 148.00,162.00 L 148.55,161.45 L 149.62,160.59 L 150.72,160.00 L 150.81,160.00 L 151.35,159.65 L 151.67,159.43 L 152.55,158.70 L 153.03,158.31 L 154.15,157.30 L 155.97,155.59 L 156.64,154.93 L 158.36,153.42 L 159.26,152.64 L 161.33,150.95 L 163.46,149.24 L 168.18,145.72 L 169.35,144.87 L 171.64,143.27 L 172.77,142.50 L 174.85,141.13 L 175.85,140.49 L 177.59,139.46 L 179.66,138.39 L 180.53,138.02 L 181.99,137.18 L 182.31,136.98 L 182.78,136.61 L 183.16,136.16 L 183.20,136.06 L 183.56,135.76 L 183.79,135.59 L 184.53,135.15 L 184.94,134.91 L 186.02,134.35 L 186.61,134.05 L 188.03,133.36 L 188.78,133.00 L 190.52,132.21 L 191.42,131.80 L 193.45,130.90 L 194.50,130.44 L 196.81,129.45 L 200.56,127.87 L 201.37,127.54 L 203.34,126.93 L 205.91,126.37 L 206.57,126.30 L 207.79,125.90 L 208.91,125.16 L 208.99,125.04 L 209.57,124.72 L 209.92,124.55 L 210.94,124.19 L 215.00,123.15 L 216.77,122.80 L 220.89,122.16 L 222.96,121.87 L 226.90,121.42 L 227.82,121.33 L 229.45,121.19 L 230.22,121.14 L 231.45,121.09 L 232.00,121.07 M 279.39,193.36 L 279.51,193.58 L 279.71,194.32 L 280.00,197.50 L 280.00,198.74 L 279.71,200.68 L 279.62,201.09 L 279.39,201.64 L 279.00,202.00 L 278.86,202.00 L 278.61,201.64 L 278.49,201.42 L 278.29,200.68 L 278.11,199.86 L 278.00,197.50 L 278.00,196.26 L 278.29,194.32 L 278.38,193.91 L 278.61,193.36 L 279.00,193.00 L 279.14,193.00 M 296.80,193.40 L 297.03,193.65 L 297.25,194.42 L 297.32,194.84 L 297.20,195.83 L 296.59,197.38 L 296.39,197.73 L 296.14,198.29 L 296.04,198.55 L 296.01,198.95 L 296.75,199.71 L 297.19,199.87 L 297.70,200.34 L 297.90,200.58 L 297.96,201.09 L 297.93,201.34 L 297.55,201.73 L 296.50,202.00 L 296.09,202.00 L 295.44,201.56 L 295.17,201.29 L 295.00,200.50 L 295.00,200.05 L 294.73,199.45 L 294.57,199.21 L 294.09,199.04 L 293.85,199.01 L 293.32,199.30 L 292.66,200.25 L 292.51,200.62 L 292.28,200.67 L 292.08,199.75 L 292.05,199.10 L 292.10,198.16 L 292.14,197.74 L 292.37,197.17 L 292.51,196.93 L 292.98,196.67 L 294.00,196.52 L 294.43,196.51 L 294.99,196.01 L 295.21,194.75 L 295.13,194.27 L 295.28,193.51 L 295.87,193.00 L 296.25,193.00 M 332.65,198.47 L 333.00,199.42 L 333.00,199.85 L 332.53,200.53 L 331.42,201.00 L 330.98,201.00 L 330.41,200.65 L 330.20,200.44 L 330.23,199.81 L 330.38,199.35 L 330.92,198.72 L 331.21,198.46 L 331.85,198.26 L 332.15,198.21 M 358.83,167.18 L 359.00,167.83 L 359.00,168.15 L 359.58,168.66 L 360.98,169.00 L 361.31,169.00 L 361.98,169.26 L 362.32,169.44 L 363.00,170.06 L 363.34,170.41 L 364.03,171.38 L 365.09,173.25 L 365.39,173.83 L 366.31,175.59 L 366.82,176.53 L 368.06,178.80 L 372.20,186.18 L 372.88,187.38 L 374.10,189.70 L 374.68,190.83 L 375.61,192.84 L 376.03,193.79 L 376.57,195.28 L 376.83,196.67 L 376.80,196.81 L 376.64,196.87 L 376.55,196.87 L 376.27,196.67 L 376.11,196.53 L 375.71,196.06 L 375.50,195.79 L 374.98,195.07 L 374.43,194.28 L 373.03,191.97 L 372.27,190.71 L 370.49,187.50 L 368.84,184.48 L 365.28,178.47 L 364.44,177.08 L 362.94,174.73 L 362.59,174.19 L 361.97,173.27 L 361.18,172.17 L 360.73,171.57 L 359.94,170.43 L 359.57,169.88 L 359.00,168.92 L 358.76,168.47 L 358.47,167.80 L 358.43,167.24 L 358.59,167.08 M 152.19,172.34 L 153.48,172.99 L 153.94,173.36 L 154.34,174.25 L 154.47,174.70 L 154.28,175.56 L 154.12,175.97 L 153.42,176.59 L 151.89,177.00 L 151.29,177.00 L 150.49,176.49 L 150.17,176.16 L 150.00,175.06 L 150.00,174.43 L 150.30,173.47 L 150.48,173.04 L 151.08,172.53 L 151.40,172.33 M 374.21,168.28 L 375.06,168.90 L 375.79,170.14 L 375.88,170.61 L 375.61,171.39 L 375.42,171.75 L 374.74,172.22 L 374.36,172.40 L 373.44,172.47 L 372.97,172.44 L 372.01,172.01 L 371.56,171.73 L 371.22,170.88 L 371.13,170.44 L 371.39,169.52 L 371.59,169.09 L 372.31,168.45 L 373.74,168.19 M 154.60,165.68 L 155.15,165.89 L 155.77,166.71 L 155.99,167.15 L 156.00,168.16 L 155.93,168.64 L 155.39,169.44 L 154.00,170.00 L 153.36,170.00 L 152.52,169.52 L 152.18,169.21 L 152.00,168.17 L 152.00,167.58 L 152.16,166.69 L 152.27,166.29 L 152.64,165.78 L 152.85,165.58 L 153.45,165.45 M 366.44,156.72 L 367.51,157.35 L 367.99,157.74 L 368.62,158.91 L 368.84,161.06 L 368.78,161.50 L 368.55,162.20 L 368.41,162.52 L 367.99,163.00 L 367.76,163.22 L 367.15,163.53 L 365.96,163.80 L 365.26,163.88 L 363.96,163.80 L 363.37,163.72 L 362.71,163.38 L 362.36,163.03 L 362.05,161.94 L 361.94,161.36 L 362.08,160.07 L 362.19,159.43 L 362.71,158.28 L 363.86,157.07 L 364.52,156.72 L 365.81,156.66 M 298.72,140.29 L 299.00,141.00 L 299.00,141.28 L 298.54,141.71 L 297.44,142.00 L 297.01,142.00 L 296.52,141.71 L 296.35,141.53 L 296.50,141.00 L 296.67,140.72 L 297.21,140.29 L 298.06,140.00 L 298.32,140.00 M 296.53,133.42 L 296.96,133.63 L 297.57,134.35 L 297.81,135.74 L 297.70,136.31 L 297.04,137.12 L 296.67,137.46 L 295.72,137.77 L 295.24,137.85 L 294.33,137.59 L 293.91,137.38 L 293.36,136.51 L 293.19,136.06 L 293.23,135.03 L 293.80,133.80 L 294.18,133.42 L 295.13,133.17 L 295.60,133.12 M 265.50,120.46 L 266.45,120.50 L 268.57,120.66 L 269.66,120.75 L 271.99,120.99 L 274.36,121.26 L 279.34,121.97 L 281.81,122.35 L 286.42,123.22 L 287.51,123.44 L 289.50,123.89 L 292.08,124.57 L 292.52,124.70 L 293.14,125.33 L 293.41,125.68 L 293.64,126.49 L 293.69,126.88 L 293.47,127.52 L 292.58,127.89 L 292.43,127.87 L 291.65,127.69 L 291.19,127.58 L 289.91,127.25 L 289.22,127.06 L 287.61,126.61 L 286.78,126.38 L 285.00,125.86 L 284.11,125.60 L 281.61,124.97 L 280.27,124.64 L 277.18,123.94 L 267.50,122.01 L 256.50,120.06 M 168.62,120.30 L 169.95,120.88 L 170.56,121.23 L 171.34,122.16 L 171.65,122.66 L 171.77,123.76 L 171.07,125.42 L 170.61,125.96 L 169.39,126.62 L 168.75,126.88 L 167.40,126.96 L 166.74,126.93 L 165.62,126.46 L 165.11,126.16 L 164.54,125.14 L 164.30,124.37 L 164.24,123.01 L 164.28,122.38 L 164.74,121.38 L 165.04,120.93 L 165.96,120.39 L 167.78,120.20 M 156.87,121.27 L 157.84,121.84 L 158.50,122.99 L 158.50,123.38 L 158.07,124.04 L 157.81,124.33 L 157.04,124.71 L 156.64,124.86 L 155.79,124.87 L 155.38,124.82 L 154.70,124.37 L 154.31,123.97 L 153.97,123.16 L 153.87,122.76 L 154.06,122.07 L 154.22,121.75 L 154.86,121.33 L 156.25,121.18 M 180.49,117.40 L 180.94,117.56 L 181.56,118.14 L 181.75,119.25 L 181.61,119.67 L 180.97,120.27 L 180.62,120.53 L 179.74,120.77 L 179.29,120.85 L 178.44,120.69 L 178.04,120.56 L 177.48,119.97 L 177.29,119.65 L 177.29,118.85 L 177.82,117.78 L 178.16,117.44 L 179.08,117.21 L 179.55,117.16 M 264.50,111.52 L 265.74,111.57 L 267.93,111.71 L 268.99,111.78 L 270.82,111.93 L 271.69,112.01 L 273.16,112.19 L 273.86,112.28 L 274.99,112.48 L 275.52,112.59 L 276.32,112.82 L 276.68,112.94 L 277.15,113.20 L 277.35,113.34 L 277.52,113.63 L 277.43,114.11 L 277.28,114.36 L 276.84,114.70 L 276.19,114.87 L 276.10,114.86 L 275.13,114.68 L 274.54,114.57 L 272.77,114.25 L 271.80,114.07 L 269.44,113.64 L 268.21,113.41 L 265.50,112.92 L 255.50,111.09 M 299.98,107.60 L 300.39,107.68 L 300.96,107.97 L 301.21,108.14 L 301.53,108.68 L 301.83,109.81 L 301.97,110.79 L 301.62,112.42 L 301.36,113.16 L 300.38,114.18 L 299.83,114.60 L 298.45,114.84 L 297.73,114.84 L 296.17,114.13 L 295.79,113.89 L 295.32,112.70 L 295.17,110.39 L 295.24,109.77 L 295.45,108.90 L 295.57,108.51 L 295.98,108.02 L 296.22,107.81 L 296.94,107.60 L 298.50,107.50 L 299.09,107.50 M 213.71,109.29 L 214.00,110.00 L 214.00,110.27 L 213.71,110.71 L 213.00,111.00 L 212.72,111.00 L 212.29,110.71 L 212.11,110.52 L 212.00,110.00 L 212.00,109.72 L 212.29,109.29 L 213.00,109.00 L 213.27,109.00 M 227.71,105.52 L 228.00,106.44 L 228.00,106.87 L 227.71,107.54 L 227.00,108.00 L 226.72,108.00 L 226.29,107.72 L 226.11,107.55 L 226.00,107.06 L 226.00,106.80 L 226.29,106.21 L 227.00,105.50 L 227.27,105.33 M 236.90,103.49 L 237.25,103.79 L 237.65,104.64 L 237.79,105.08 L 237.70,105.99 L 236.90,107.09 L 236.40,107.40 L 235.60,107.77 L 235.22,107.90 L 234.63,107.91 L 234.36,107.87 L 233.92,107.51 L 233.71,107.28 L 233.38,106.55 L 233.20,106.08 L 233.16,105.21 L 233.19,104.79 L 233.51,104.07 L 233.71,103.75 L 234.35,103.29 L 235.59,103.00 L 236.10,103.00 M 229.79,101.29 L 230.50,102.00 L 230.67,102.27 L 230.48,102.71 L 229.56,103.00 L 229.13,103.00 L 228.46,102.71 L 228.18,102.52 L 228.00,102.00 L 228.00,101.72 L 228.28,101.29 L 228.94,101.00 L 229.20,101.00 Z" fill="rgba(214,167,84,1)"/>
<path d="M 354.00,364.00 L 354.00,363.72 L 354.29,363.29 L 355.00,363.00 L 355.27,363.00 L 355.71,363.29 L 356.00,364.00 L 356.00,364.27 L 355.71,364.71 L 355.00,365.00 L 354.72,365.00 L 354.29,364.71 L 354.11,364.52 M 131.00,351.00 L 131.00,350.72 L 131.29,350.29 L 132.00,350.00 L 132.28,350.00 L 132.71,350.29 L 133.00,351.00 L 133.00,351.27 L 132.71,351.71 L 132.00,352.00 L 131.72,352.00 L 131.29,351.71 L 131.11,351.52 M 348.00,337.00 L 348.00,336.72 L 348.29,336.29 L 349.00,336.00 L 349.27,336.00 L 349.71,336.29 L 350.00,337.00 L 350.00,337.27 L 349.71,337.71 L 349.00,338.00 L 348.72,338.00 L 348.29,337.71 L 348.11,337.52 M 109.15,288.25 L 109.02,288.01 L 108.74,287.22 L 108.60,286.78 L 108.31,285.69 L 107.57,282.00 L 107.43,281.04 L 107.28,279.76 L 107.23,279.21 L 107.26,278.68 L 107.30,278.50 L 107.54,278.64 L 108.15,279.50 L 108.29,279.73 L 108.60,280.47 L 108.75,280.88 L 109.07,281.90 L 109.39,282.97 L 109.96,285.43 L 110.21,286.63 L 110.50,288.61 L 110.54,289.04 L 110.54,289.62 L 110.38,290.00 L 110.29,290.00 L 109.89,289.49 L 109.67,289.17 M 188.71,287.00 L 188.55,286.40 L 188.59,285.45 L 188.65,285.03 L 189.00,284.55 L 189.19,284.39 L 189.68,284.53 L 190.40,285.59 L 190.61,286.14 L 190.86,287.06 L 190.95,287.48 L 190.96,288.12 L 190.94,288.41 L 190.71,288.78 L 190.12,289.00 L 189.87,289.00 L 189.34,288.41 L 189.08,288.05 M 399.00,274.00 L 399.00,273.72 L 399.29,273.29 L 400.00,273.00 L 400.27,273.00 L 400.71,273.29 L 401.00,274.00 L 401.00,274.27 L 400.71,274.71 L 400.00,275.00 L 399.72,275.00 L 399.29,274.71 L 399.11,274.52 M 97.00,263.00 L 97.00,262.73 L 97.29,262.29 L 98.00,262.00 L 98.27,262.00 L 98.71,262.29 L 99.00,263.00 L 99.00,263.27 L 98.71,263.71 L 98.00,264.00 L 97.72,264.00 L 97.29,263.71 L 97.11,263.52 M 394.00,218.00 L 394.00,217.72 L 394.29,217.29 L 395.00,217.00 L 395.27,217.00 L 395.71,217.29 L 396.00,218.00 L 396.00,218.27 L 395.71,218.71 L 395.00,219.00 L 394.72,219.00 L 394.29,218.71 L 394.11,218.52 M 308.17,197.51 L 308.17,196.87 L 308.19,195.81 L 308.20,195.32 L 308.27,194.52 L 308.36,193.78 L 308.77,192.99 L 309.04,192.68 L 309.93,192.60 L 312.00,193.06 L 312.60,193.24 L 313.35,193.48 L 313.65,193.58 L 313.82,193.71 L 313.84,193.76 L 313.45,193.83 L 312.25,193.90 L 311.58,193.93 L 310.70,194.22 L 310.33,194.40 L 310.08,194.92 L 310.03,195.21 L 310.42,195.87 L 311.75,196.92 L 312.17,197.16 L 312.69,197.49 L 312.90,197.63 L 313.00,197.80 L 313.00,197.87 L 312.69,197.93 L 311.75,197.97 L 311.13,197.98 L 310.40,198.31 L 310.13,198.50 L 310.07,199.08 L 310.12,199.39 L 310.70,200.05 L 312.25,200.97 L 312.76,201.18 L 313.38,201.46 L 313.62,201.59 L 313.65,201.74 L 313.59,201.81 L 312.99,201.88 L 311.33,201.94 L 310.56,201.95 L 309.53,201.89 L 309.09,201.82 L 308.59,201.39 L 308.39,201.11 L 308.23,200.06 L 308.17,199.43 M 325.12,197.25 L 325.08,196.08 L 325.30,194.25 L 325.37,193.86 L 325.56,193.34 L 325.89,193.00 L 326.22,193.00 L 326.75,193.42 L 326.99,193.68 L 327.30,194.43 L 327.42,194.82 L 327.43,195.63 L 327.02,196.63 L 326.79,196.87 L 326.30,197.83 L 325.71,199.50 L 325.65,199.77 L 325.52,199.94 L 325.45,199.96 L 325.34,199.66 L 325.29,199.46 L 325.20,198.74 L 325.16,198.34 M 157.00,171.00 L 157.00,170.72 L 157.29,170.29 L 158.00,170.00 L 158.28,170.00 L 158.71,170.29 L 159.00,171.00 L 159.00,171.28 L 158.71,171.71 L 158.00,172.00 L 157.72,172.00 L 157.29,171.71 L 157.11,171.53 Z" fill="rgba(227,201,108,1)"/>
</g>
</svg>