<?xml version="1.0" standalone="no"?>
<!DOCTYPE svg PUBLIC "-//W3C//DTD SVG 20010904//EN"
 "http://www.w3.org/TR/2001/REC-SVG-20010904/DTD/svg10.dtd">
<svg version="1.0" xmlns="http://www.w3.org/2000/svg"
 width="500.000000pt" height="500.000000pt" viewBox="0 0 500.000000 500.000000"
 preserveAspectRatio="xMidYMid meet">

<g transform="translate(0.000000,500.000000) scale(0.100000,-0.100000)"
fill="#000000" stroke="none">
<path d="M0 2500 l0 -2500 2500 0 2500 0 0 2500 0 2500 -2500 0 -2500 0 0
-2500z m2300 1480 c0 -5 -5 -10 -11 -10 -5 0 -7 5 -4 10 3 6 8 10 11 10 2 0 4
-4 4 -10z m78 -27 c5 -17 -26 -29 -40 -15 -6 6 -7 15 -3 22 9 14 37 9 43 -7z
m-98 -23 c0 -5 -4 -10 -10 -10 -5 0 -10 5 -10 10 0 6 5 10 10 10 6 0 10 -4 10
-10z m730 -15 c20 -25 8 -50 -25 -50 -24 0 -31 5 -33 24 -6 37 34 55 58 26z
m-870 -15 c0 -5 -4 -10 -10 -10 -5 0 -10 5 -10 10 0 6 5 10 10 10 6 0 10 -4
10 -10z m227 -21 c-38 -4 -75 -10 -84 -13 -8 -3 -20 -3 -26 1 -15 10 49 20
123 20 l55 0 -68 -8z m411 -12 c77 -18 54 -27 -26 -10 -37 8 -98 18 -137 23
-69 9 -69 9 20 4 50 -3 114 -11 143 -17z m-558 -7 c18 -12 2 -12 -25 0 -13 6
-15 9 -5 9 8 0 22 -4 30 -9z m645 -20 c-3 -5 -11 -10 -16 -10 -6 0 -7 5 -4 10
3 6 11 10 16 10 6 0 7 -4 4 -10z m30 -10 c-3 -5 -12 -10 -18 -10 -7 0 -6 4 3
10 19 12 23 12 15 0z m-1077 -17 c5 -17 -26 -29 -40 -15 -6 6 -7 15 -3 22 9
14 37 9 43 -7z m-109 -32 c13 -24 -8 -55 -34 -50 -28 6 -42 34 -26 53 18 22
48 20 60 -3z m729 12 c-15 -2 -42 -2 -60 0 -18 2 -6 4 27 4 33 0 48 -2 33 -4z
m272 -3 c107 -14 262 -49 255 -59 -2 -4 39 -27 92 -51 259 -118 499 -335 633
-572 17 -32 30 -58 27 -58 -2 0 -25 35 -50 78 -204 350 -605 606 -1032 661
-38 4 -56 9 -40 10 17 0 69 -4 115 -9z m-1127 -6 c9 -10 -4 -34 -18 -34 -17 0
-28 17 -20 30 7 11 28 13 38 4z m670 -15 c-252 -53 -487 -168 -677 -333 -88
-77 -201 -212 -243 -291 -20 -38 -40 -72 -45 -73 -4 -2 -5 -9 -2 -14 4 -6 2
-8 -3 -5 -14 9 -74 -124 -108 -238 -15 -49 -28 -94 -30 -100 -2 -5 -4 -2 -4 8
-2 34 69 233 113 320 46 89 161 263 203 305 12 12 23 25 23 27 0 3 3 5 6 4 3
0 33 26 67 58 82 76 197 154 313 214 52 26 91 49 86 52 -4 2 -1 2 7 0 20 -5
52 7 46 18 -3 5 1 6 9 3 9 -3 16 -2 16 3 0 8 63 25 215 56 11 3 38 5 60 5 27
0 11 -5 -52 -19z m781 9 c-5 -8 -2 -9 10 -5 11 5 15 3 10 -5 -5 -8 -1 -9 12
-4 14 5 16 4 8 -4 -8 -8 -18 -8 -37 1 -25 11 -28 29 -6 29 6 0 7 -5 3 -12z
m131 -57 c3 -5 2 -12 -3 -15 -5 -3 -9 1 -9 9 0 17 3 19 12 6z m49 -42 c-3 -5
-10 -7 -15 -3 -5 3 -7 10 -3 15 3 5 10 7 15 3 5 -3 7 -10 3 -15z m23 -14 c0
-8 -4 -12 -9 -9 -5 3 -6 10 -3 15 9 13 12 11 12 -6z m-270 -11 c8 -21 -13 -42
-28 -27 -13 13 -5 43 11 43 6 0 13 -7 17 -16z m307 -15 c-3 -5 -10 -7 -15 -3
-5 3 -7 10 -3 15 3 5 10 7 15 3 5 -3 7 -10 3 -15z m-247 -15 c-3 -3 -12 -4
-19 -1 -8 3 -5 6 6 6 11 1 17 -2 13 -5z m280 -11 c0 -9 -4 -10 -14 -2 -7 6
-13 12 -13 14 0 1 6 2 13 2 8 0 14 -6 14 -14z m-1707 -16 c0 -2 -10 -12 -22
-23 l-23 -19 19 23 c18 21 26 27 26 19z m1390 -7 c0 -5 -4 -10 -10 -10 -5 0
-10 5 -10 10 0 6 5 10 10 10 6 0 10 -4 10 -10z m371 -7 c7 -10 9 -15 5 -11 -5
4 -15 3 -22 -3 -11 -9 -13 2 -5 29 2 6 10 1 22 -15z m-1701 -22 c0 -5 -12 -17
-27 -26 l-28 -18 24 27 c26 28 31 31 31 17z m1752 -26 c3 3 15 -6 27 -19 30
-32 8 -28 -46 8 -49 33 -56 43 -14 22 16 -9 31 -13 33 -11z m-1872 12 c0 -1
-33 -34 -72 -72 l-73 -70 70 73 c64 67 75 77 75 69z m31 -64 c-13 -24 -71 -79
-71 -68 0 5 -28 -17 -62 -50 -62 -59 -62 -59 6 12 38 40 72 70 76 68 4 -2 17
9 29 25 24 33 37 40 22 13z m1926 -34 c10 -17 33 -39 51 -51 17 -11 32 -25 32
-31 0 -7 19 -41 43 -77 77 -115 144 -235 139 -249 -3 -8 -1 -11 4 -8 5 3 9 -8
10 -23 1 -19 -17 9 -57 90 -32 65 -81 146 -109 179 -28 34 -48 61 -44 61 4 0
0 8 -9 18 -10 10 -15 21 -12 24 3 3 -5 12 -19 21 -28 19 -72 77 -57 77 5 0 18
-14 28 -31z m190 -35 c8 -22 -10 -49 -32 -49 -10 0 -22 7 -28 16 -15 24 -1 49
28 49 15 0 28 -7 32 -16z m-2307 -38 c0 -2 -8 -10 -17 -17 -16 -13 -17 -12 -4
4 13 16 21 21 21 13z m178 -53 c-2 -10 -10 -18 -18 -18 -8 0 -16 8 -18 18 -2
12 3 17 18 17 15 0 20 -5 18 -17z m785 1 l77 -7 -1 -86 c-1 -58 -3 -76 -8 -56
-11 45 -31 71 -72 94 -84 48 -218 11 -231 -64 -1 -11 -7 -23 -12 -27 -15 -10
-9 -97 8 -123 9 -14 85 -79 169 -146 177 -141 219 -184 248 -259 49 -124 20
-253 -76 -338 -58 -51 -126 -74 -219 -74 -133 -1 -226 46 -279 140 -57 102
-42 243 34 326 l29 31 -31 -61 c-36 -70 -47 -157 -30 -222 26 -94 136 -172
242 -172 204 0 323 181 233 356 -26 52 -49 75 -198 194 -92 74 -177 150 -189
169 -16 26 -21 50 -21 100 0 78 26 136 79 178 64 51 105 59 248 47z m1302 -24
c10 -11 16 -20 13 -20 -3 0 -13 9 -23 20 -10 11 -16 20 -13 20 3 0 13 -9 23
-20z m113 -3 c2 -11 -3 -17 -17 -17 -23 0 -35 15 -26 31 10 15 39 6 43 -14z
m-2168 -7 c0 -5 -4 -10 -10 -10 -5 0 -10 5 -10 10 0 6 5 10 10 10 6 0 10 -4
10 -10z m-220 -4 c0 -2 -8 -10 -17 -17 -16 -13 -17 -12 -4 4 13 16 21 21 21
13z m168 -33 c-2 -10 -10 -18 -18 -18 -8 0 -16 8 -18 18 -2 12 3 17 18 17 15
0 20 -5 18 -17z m2153 -10 c13 -16 12 -17 -3 -4 -17 13 -22 21 -14 21 2 0 10
-8 17 -17z m99 -23 c0 -5 -4 -10 -10 -10 -5 0 -10 5 -10 10 0 6 5 10 10 10 6
0 10 -4 10 -10z m-1120 -159 c0 -5 -9 -7 -20 -4 -29 8 -25 -16 5 -27 28 -11
31 -22 10 -40 -16 -13 -55 -5 -55 13 0 8 3 8 12 -1 16 -16 38 -15 38 2 0 7 -9
16 -20 19 -31 8 -27 47 5 47 14 0 25 -4 25 -9z m130 -36 c0 -25 -4 -45 -10
-45 -5 0 -10 20 -10 45 0 25 5 45 10 45 6 0 10 -20 10 -45z m170 26 c0 -11 -5
-23 -11 -26 -7 -5 -4 -14 7 -26 10 -11 12 -19 6 -19 -7 0 -17 9 -24 20 -17 26
-26 25 -31 -2 -2 -13 -5 -2 -6 25 -1 46 0 47 29 47 23 0 30 -5 30 -19z m153
12 c-13 -2 -23 -11 -23 -19 0 -8 10 -15 23 -15 l22 -2 -22 -4 c-13 -2 -23 -11
-23 -18 0 -7 10 -16 23 -18 16 -3 13 -5 -10 -6 -33 -1 -33 0 -33 44 0 44 0 45
33 44 23 -1 26 -3 10 -6z m158 -15 c24 -30 24 -46 0 -24 -19 17 -20 17 -24
-16 -3 -26 -4 -24 -5 15 -1 26 1 47 4 47 3 0 14 -10 25 -22z m39 -25 c0 -27
-4 -43 -9 -37 -8 8 -4 84 5 84 2 0 4 -21 4 -47z m449 -78 c0 -5 -6 1 -14 15
-8 14 -14 30 -14 35 0 6 6 -1 14 -15 8 -14 14 -29 14 -35z m-2449 -66 c9 -15
8 -24 -1 -35 -28 -33 -80 -3 -59 35 6 12 19 21 30 21 11 0 24 -9 30 -21z
m1159 -48 c-1 -26 -3 -23 -20 34 -8 28 -8 29 6 11 8 -11 15 -31 14 -45z m1271
29 c0 -13 -7 -20 -20 -20 -13 0 -20 7 -20 20 0 13 7 20 20 20 13 0 20 -7 20
-20z m67 -2 c-3 -8 -6 -5 -6 6 -1 11 2 17 5 13 3 -3 4 -12 1 -19z m-2707 -63
c0 -5 -5 -3 -10 5 -5 8 -10 20 -10 25 0 6 5 3 10 -5 5 -8 10 -19 10 -25z
m2850 25 c0 -5 -4 -10 -10 -10 -5 0 -10 5 -10 10 0 6 5 10 10 10 6 0 10 -4 10
-10z m-130 -57 c-11 -17 -11 -17 -6 0 3 10 6 24 7 30 0 9 2 9 5 0 3 -7 0 -20
-6 -30z m-2730 -8 c0 -5 -5 -3 -10 5 -5 8 -10 20 -10 25 0 6 5 3 10 -5 5 -8
10 -19 10 -25z m240 25 c0 -5 -5 -10 -11 -10 -5 0 -7 5 -4 10 3 6 8 10 11 10
2 0 4 -4 4 -10z m2440 -11 c0 -25 -33 -22 -38 4 -2 12 3 17 17 17 15 0 21 -6
21 -21z m-1895 -32 c-8 -20 -16 -60 -17 -89 l-1 -53 -6 45 c-5 39 7 102 26
133 13 21 12 -3 -2 -36z m-595 13 c0 -21 -24 -28 -35 -10 -8 14 3 30 21 30 8
0 14 -9 14 -20z m2568 -125 c0 -31 -3 -25 -13 30 -6 39 -9 77 -6 85 7 18 20
-58 19 -115z m-2783 30 c-8 -41 -13 -57 -14 -39 -2 49 11 126 19 117 4 -4 2
-39 -5 -78z m112 43 c-3 -8 -6 -5 -6 6 -1 11 2 17 5 13 3 -3 4 -12 1 -19z
m-50 -30 c-3 -7 -5 -2 -5 12 0 14 2 19 5 13 2 -7 2 -19 0 -25z m-107 2 c0 -13
-7 -20 -20 -20 -19 0 -27 20 -13 33 13 14 33 6 33 -13z m97 -62 c-3 -7 -5 -2
-5 12 0 14 2 19 5 13 2 -7 2 -19 0 -25z m50 0 c-3 -7 -5 -2 -5 12 0 14 2 19 5
13 2 -7 2 -19 0 -25z m2730 0 c-3 -8 -6 -5 -6 6 -1 11 2 17 5 13 3 -3 4 -12 1
-19z m50 0 c-3 -8 -6 -5 -6 6 -1 11 2 17 5 13 3 -3 4 -12 1 -19z m-2114 -10
c3 -10 4 -18 3 -18 -2 0 -10 8 -19 18 -14 15 -14 19 -3 19 8 0 17 -9 19 -19z
m784 0 c-3 -8 -6 -5 -6 6 -1 11 2 17 5 13 3 -3 4 -12 1 -19z m-1570 -175 c-2
-32 -3 -8 -3 52 0 61 1 87 3 58 2 -29 2 -78 0 -110z m2810 75 c-2 -18 -4 -6
-4 27 0 33 2 48 4 33 2 -15 2 -42 0 -60z m-1987 37 c0 -5 -5 -3 -10 5 -5 8
-10 20 -10 25 0 6 5 3 10 -5 5 -8 10 -19 10 -25z m-763 -37 c-2 -13 -4 -3 -4
22 0 25 2 35 4 23 2 -13 2 -33 0 -45z m2800 -10 c-2 -13 -4 -5 -4 17 -1 22 1
32 4 23 2 -10 2 -28 0 -40z m50 20 c-3 -7 -5 -2 -5 12 0 14 2 19 5 13 2 -7 2
-19 0 -25z m-1319 -3 c-3 -3 -9 2 -12 12 -6 14 -5 15 5 6 7 -7 10 -15 7 -18z
m403 -16 c-18 -4 -43 -17 -55 -28 -21 -21 -21 -29 -26 -469 -5 -443 -5 -447
-29 -499 -13 -29 -43 -70 -66 -92 -68 -63 -189 -89 -260 -56 l-30 14 43 -6
c98 -13 194 46 234 145 23 57 23 60 23 500 l0 444 -28 24 c-15 13 -40 25 -55
26 -15 1 23 4 83 7 61 4 130 4 155 2 l45 -4 -34 -8z m999 -24 c0 -9 -7 -18
-16 -22 -18 -7 -39 11 -30 26 11 17 46 13 46 -4z m-230 -25 c0 -5 -4 -10 -10
-10 -5 0 -10 5 -10 10 0 6 5 10 10 10 6 0 10 -4 10 -10z m47 -72 c-2 -18 -4
-6 -4 27 0 33 2 48 4 33 2 -15 2 -42 0 -60z m-1177 -5 c6 -27 13 -59 16 -73 4
-21 3 -22 -4 -5 -37 83 -50 125 -37 125 8 0 18 -20 25 -47z m-1700 7 c0 -5 -4
-10 -10 -10 -5 0 -10 5 -10 10 0 6 5 10 10 10 6 0 10 -4 10 -10z m127 -42 c-2
-13 -4 -5 -4 17 -1 22 1 32 4 23 2 -10 2 -28 0 -40z m60 10 c-3 -7 -5 -2 -5
12 0 14 2 19 5 13 2 -7 2 -19 0 -25z m71 15 c-2 -10 -10 -18 -18 -18 -8 0 -16
8 -18 18 -2 12 3 17 18 17 15 0 20 -5 18 -17z m2669 -20 c-3 -10 -5 -4 -5 12
0 17 2 24 5 18 2 -7 2 -21 0 -30z m151 20 c5 -17 -26 -29 -40 -15 -6 6 -7 15
-3 22 9 14 37 9 43 -7z m-2964 -228 c8 -33 24 -86 35 -117 11 -32 16 -58 12
-58 -20 0 -93 290 -90 359 1 14 7 -8 14 -49 7 -41 20 -102 29 -135z m2863 173
c-3 -7 -5 -2 -5 12 0 14 2 19 5 13 2 -7 2 -19 0 -25z m-110 -35 c-3 -10 -5 -2
-5 17 0 19 2 27 5 18 2 -10 2 -26 0 -35z m-2852 17 c8 -27 -12 -52 -39 -48
-21 3 -32 28 -22 54 8 22 54 18 61 -6z m3005 -20 c0 -5 -4 -10 -10 -10 -5 0
-10 5 -10 10 0 6 5 10 10 10 6 0 10 -4 10 -10z m-2883 -22 c-3 -8 -6 -5 -6 6
-1 11 2 17 5 13 3 -3 4 -12 1 -19z m1624 -5 c-12 -20 -14 -14 -5 12 4 9 9 14
11 11 3 -2 0 -13 -6 -23z m1156 5 c-3 -8 -6 -5 -6 6 -1 11 2 17 5 13 3 -3 4
-12 1 -19z m-81 -132 c-34 -127 -77 -235 -131 -330 -164 -288 -428 -513 -736
-627 -86 -31 -259 -70 -306 -68 -32 1 -29 2 97 26 238 44 479 172 683 362 54
50 97 92 96 93 -1 2 23 36 53 76 113 150 208 351 244 518 10 49 20 78 22 66 2
-11 -8 -64 -22 -116z m131 112 c-3 -8 -6 -5 -6 6 -1 11 2 17 5 13 3 -3 4 -12
1 -19z m-1188 -10 c-2 -2 -17 -14 -32 -28 l-29 -25 13 27 c6 15 19 29 28 31
15 3 29 0 20 -5z m-1632 -30 c-3 -8 -6 -5 -6 6 -1 11 2 17 5 13 3 -3 4 -12 1
-19z m1565 -13 c3 -14 1 -28 -3 -31 -5 -3 -9 9 -9 25 0 38 6 40 12 6z m-1092
-45 c0 -43 -21 -63 -43 -40 -9 9 -8 11 8 8 17 -2 21 3 23 35 4 49 12 47 12 -3z
m153 33 c-13 -2 -23 -11 -23 -19 0 -8 10 -15 23 -15 l22 -2 -22 -4 c-13 -2
-23 -11 -23 -18 0 -7 10 -16 23 -18 16 -3 13 -5 -10 -6 -33 -1 -33 0 -33 44 0
44 0 45 33 44 23 -1 26 -3 10 -6z m137 -10 c0 -10 5 -25 10 -33 7 -12 11 -8
16 18 8 37 34 44 34 8 0 -37 17 -41 25 -5 4 17 9 28 12 26 7 -7 -17 -87 -26
-87 -4 0 -12 17 -17 38 l-10 37 -10 -34 c-14 -50 -29 -48 -41 4 -6 25 -6 45
-2 45 5 0 9 -8 9 -17z m248 10 c-34 -5 -38 -32 -5 -34 l22 -2 -22 -4 c-32 -6
-29 -31 5 -36 25 -4 25 -4 -5 -6 -33 -1 -33 0 -33 44 0 44 0 45 33 44 30 -2
30 -2 5 -6z m142 -32 c0 -33 4 -40 23 -44 16 -3 13 -5 -10 -6 -33 -1 -33 0
-33 44 0 25 5 45 10 45 6 0 10 -18 10 -39z m200 30 c0 -5 -9 -7 -20 -4 -12 3
-20 0 -20 -7 0 -6 9 -14 21 -17 30 -8 22 -48 -10 -48 -13 0 -26 7 -29 15 -4
12 -2 13 9 3 18 -18 39 -16 39 2 0 8 -6 15 -14 15 -18 0 -39 27 -31 40 8 12
55 14 55 1z m-1343 -23 c-3 -8 -6 -5 -6 6 -1 11 2 17 5 13 3 -3 4 -12 1 -19z
m1540 -30 c-3 -8 -6 -5 -6 6 -1 11 2 17 5 13 3 -3 4 -12 1 -19z m-1520 -50
c-3 -8 -6 -5 -6 6 -1 11 2 17 5 13 3 -3 4 -12 1 -19z m1510 -10 c-3 -8 -6 -5
-6 6 -1 11 2 17 5 13 3 -3 4 -12 1 -19z m-1467 -103 c0 -5 -5 -3 -10 5 -5 8
-10 20 -10 25 0 6 5 3 10 -5 5 -8 10 -19 10 -25z m-40 1 c0 -3 -4 -8 -10 -11
-5 -3 -10 -1 -10 4 0 6 5 11 10 11 6 0 10 -2 10 -4z m10 -26 c0 -5 -5 -10 -11
-10 -5 0 -7 5 -4 10 3 6 8 10 11 10 2 0 4 -4 4 -10z m59 -45 c0 -5 -6 1 -14
15 -8 14 -14 30 -14 35 0 6 6 -1 14 -15 8 -14 14 -29 14 -35z m40 -72 c68
-133 222 -316 357 -424 125 -100 381 -230 421 -215 8 3 12 2 9 -3 -7 -11 41
-24 56 -15 7 4 8 3 4 -4 -4 -7 3 -11 21 -10 15 0 71 -9 123 -21 63 -14 136
-21 215 -23 l120 -1 -100 -8 c-55 -4 -113 -10 -130 -14 -24 -5 -27 -4 -15 5
12 9 4 10 -35 6 -37 -4 -46 -3 -35 5 11 8 6 9 -23 5 -25 -3 -35 -1 -31 6 5 7
-2 9 -20 6 -14 -3 -26 -2 -26 1 0 3 -15 7 -33 8 -68 3 -352 121 -461 191 -109
70 -341 272 -312 272 5 0 -3 9 -18 21 -14 11 -24 24 -21 29 3 4 -1 10 -9 13
-24 9 -78 95 -65 103 8 4 9 3 5 -5 -4 -6 0 -14 8 -17 9 -3 14 -10 11 -15 -3
-4 4 -13 16 -19 11 -7 18 -14 15 -17 -3 -3 5 -14 17 -24 12 -10 18 -18 14 -19
-15 0 218 -225 268 -258 l50 -34 -40 33 c-145 121 -285 287 -358 427 -21 39
-36 72 -33 72 3 0 19 -26 35 -57z m2351 1 c0 -8 -8 -14 -18 -14 -25 0 -34 11
-21 26 13 15 39 7 39 -12z m-2395 -4 c-3 -5 -1 -10 6 -10 7 0 9 -3 6 -7 -4 -3
1 -11 10 -18 11 -8 12 -14 5 -19 -12 -7 -45 47 -35 58 10 9 15 7 8 -4z m223
-53 c2 -11 -3 -17 -16 -17 -24 0 -32 8 -25 26 7 20 37 13 41 -9z m2102 -6 c14
-27 2 -51 -25 -51 -32 0 -49 23 -35 49 14 26 46 27 60 2z m-2042 -68 c-5 -26
-38 -29 -38 -4 0 15 6 21 21 21 14 0 19 -5 17 -17z m-263 -13 c3 -5 1 -10 -4
-10 -6 0 -11 5 -11 10 0 6 2 10 4 10 3 0 8 -4 11 -10z m2245 -20 c0 -5 -4 -10
-10 -10 -5 0 -10 5 -10 10 0 6 5 10 10 10 6 0 10 -4 10 -10z m-2039 -17 c13
-16 12 -17 -3 -4 -17 13 -22 21 -14 21 2 0 10 -8 17 -17z m2229 -16 c0 -2 -10
-12 -22 -23 l-23 -19 19 23 c18 21 26 27 26 19z m-2401 -20 c13 -16 5 -27 -21
-27 -18 0 -25 20 -11 33 10 10 19 8 32 -6z m2311 -20 c0 -2 -12 -14 -27 -28
l-28 -24 24 28 c23 25 31 32 31 24z m-20 -82 c-41 -41 -77 -75 -79 -75 -3 0
28 34 69 75 41 41 77 75 79 75 3 0 -28 -34 -69 -75z m168 58 c5 -17 -26 -29
-40 -15 -6 6 -7 15 -3 22 9 14 37 9 43 -7z m-2153 -73 c33 -33 57 -60 54 -60
-2 0 -31 27 -64 60 -33 33 -57 60 -54 60 2 0 31 -27 64 -60z m-265 30 c0 -5
-4 -10 -10 -10 -5 0 -10 5 -10 10 0 6 5 10 10 10 6 0 10 -4 10 -10z m2360 -31
c0 -16 -31 -22 -43 -10 -9 9 -9 14 2 20 16 10 41 4 41 -10z m-200 -12 c0 -2
-15 -16 -32 -33 l-33 -29 29 33 c28 30 36 37 36 29z m128 -60 c2 -12 -3 -17
-17 -17 -12 0 -21 6 -21 13 0 31 32 34 38 4z m80 -10 c2 -12 -3 -17 -17 -17
-12 0 -21 6 -21 13 0 31 32 34 38 4z m-2007 -4 c13 -16 12 -17 -3 -4 -10 7
-18 15 -18 17 0 8 8 3 21 -13z m1779 3 c0 -2 -8 -10 -17 -17 -16 -13 -17 -12
-4 4 13 16 21 21 21 13z m90 -16 c0 -5 -4 -10 -10 -10 -5 0 -10 5 -10 10 0 6
5 10 10 10 6 0 10 -4 10 -10z m-1425 -125 c0 -27 -3 -30 -30 -30 -21 0 -31 5
-33 18 -5 25 17 49 42 45 16 -2 21 -10 21 -33z m93 -52 c5 -17 -26 -29 -40
-15 -6 6 -7 15 -3 22 9 14 37 9 43 -7z m1082 7 c0 -5 -4 -10 -10 -10 -5 0 -10
5 -10 10 0 6 5 10 10 10 6 0 10 -4 10 -10z m-45 -60 c0 -8 -8 -16 -17 -18 -13
-2 -18 3 -18 18 0 15 5 20 18 18 9 -2 17 -10 17 -18z m-77 -27 c5 -17 -26 -29
-40 -15 -6 6 -7 15 -3 22 9 14 37 9 43 -7z m-391 -19 c-3 -3 -12 -4 -19 -1 -8
3 -5 6 6 6 11 1 17 -2 13 -5z m-60 -10 c-3 -3 -12 -4 -19 -1 -8 3 -5 6 6 6 11
1 17 -2 13 -5z m-629 -37 c2 -12 -3 -17 -17 -17 -12 0 -21 6 -21 13 0 31 32
34 38 4z m420 6 c-10 -2 -28 -2 -40 0 -13 2 -5 4 17 4 22 1 32 -1 23 -4z m70
0 c-10 -2 -26 -2 -35 0 -10 3 -2 5 17 5 19 0 27 -2 18 -5z"/>
<path d="M3410 3526 c0 -2 8 -10 18 -17 15 -13 16 -12 3 4 -13 16 -21 21 -21
13z"/>
<path d="M2923 3048 c2 -7 10 -13 17 -13 7 0 15 6 18 13 2 7 -5 12 -18 12 -13
0 -20 -5 -17 -12z"/>
</g>
</svg>
